<svg height="504" viewBox="0 0 691 378" width="691pt" xmlns="http://www.w3.org/2000/svg" xmlns:xlink="http://www.w3.org/1999/xlink"><defs><style>*{stroke-linecap:butt;stroke-linejoin:round}</style></defs><g id="figure_1"><path d="M0 378h691.2V0H0z" fill="#fff" id="patch_1"/><g id="axes_1"><path d="M86.4 336.42h535.68V45.36H86.4z" fill="#fff" id="patch_2"/><g id="matplotlib.axis_1"><g id="xtick_1"><g id="line2d_1"><defs><path d="M0 0v3.5" id="mf384628478" stroke="#000" stroke-width=".8"/></defs><use x="131.04" xlink:href="#mf384628478" y="336.42" stroke="#000" stroke-width=".8"/></g><g id="text_1"><defs><path d="M59.516 10.406v19.578h-16.11v8.11h25.875V6.78Q63.578 2.734 56.687.656 49.813-1.422 42-1.422q-17.094 0-26.75 9.985-9.64 10-9.64 27.812 0 17.875 9.64 27.86 9.656 9.984 26.75 9.984 7.125 0 13.547-1.766 6.422-1.75 11.844-5.172v-10.5q-5.47 4.64-11.625 6.985-6.157 2.343-12.938 2.343-13.39 0-20.11-7.468-6.702-7.47-6.702-22.266 0-14.75 6.703-22.219 6.718-7.469 20.11-7.469 5.218 0 9.312.907 4.109.906 7.375 2.812z" id="DejaVuSans-47"/><path d="M30.61 48.39q-7.22 0-11.422-5.64-4.204-5.64-4.204-15.453 0-9.813 4.172-15.453 4.188-5.64 11.453-5.64 7.188 0 11.375 5.655 4.203 5.672 4.203 15.438 0 9.719-4.203 15.406-4.187 5.688-11.375 5.688zm0 7.61q11.718 0 18.406-7.625 6.703-7.61 6.703-21.078 0-13.422-6.703-21.078-6.688-7.64-18.407-7.64-11.765 0-18.437 7.64-6.656 7.656-6.656 21.078 0 13.469 6.656 21.078Q18.844 56 30.609 56z" id="DejaVuSans-6f"/></defs><g transform="matrix(.1 0 0 -.1 124.106 351.018)"><use xlink:href="#DejaVuSans-47"/><use x="77.49" xlink:href="#DejaVuSans-6f"/></g></g></g><g id="xtick_2"><use x="220.32" xlink:href="#mf384628478" y="336.42" stroke="#000" stroke-width=".8" id="line2d_2"/><g id="text_2"><defs><path d="M53.516 70.516V60.89q-5.61 2.687-10.594 4-4.984 1.328-9.625 1.328-8.047 0-12.422-3.125t-4.375-8.89q0-4.845 2.906-7.313 2.907-2.453 11.016-3.97l5.953-1.218q11.031-2.11 16.281-7.406 5.25-5.297 5.25-14.172 0-10.61-7.11-16.078-7.093-5.469-20.812-5.469-5.172 0-11.015 1.172Q13.14.922 6.89 3.219v10.156q6-3.36 11.765-5.078 5.766-1.703 11.328-1.703 8.438 0 13.032 3.312 4.593 3.328 4.593 9.485 0 5.359-3.297 8.39-3.296 3.032-10.812 4.547L27.484 33.5q-11.03 2.188-15.968 6.875-4.922 4.688-4.922 13.047 0 9.672 6.812 15.234 6.813 5.563 18.766 5.563 5.14 0 10.453-.938 5.328-.922 10.89-2.765z" id="DejaVuSans-53"/><path d="M48.781 52.594v-8.407q-3.812 2.11-7.64 3.157-3.828 1.047-7.735 1.047-8.75 0-13.593-5.547-4.829-5.532-4.829-15.547 0-10.016 4.829-15.563 4.843-5.53 13.593-5.53 3.907 0 7.735 1.046 3.828 1.047 7.64 3.156V2.094Q45.016.344 40.984-.531q-4.015-.89-8.562-.89-12.36 0-19.64 7.765-7.266 7.765-7.266 20.953 0 13.375 7.343 21.031Q20.22 56 33.016 56q4.14 0 8.093-.86 3.953-.843 7.672-2.546z" id="DejaVuSans-63"/><path d="M34.281 27.484q-10.89 0-15.093-2.484-4.204-2.484-4.204-8.5 0-4.781 3.157-7.594 3.156-2.797 8.562-2.797 7.485 0 12 5.297 4.516 5.297 4.516 14.078v2zm17.922 3.72V0H43.22v8.297Q40.14 3.328 35.547.953q-4.594-2.375-11.234-2.375-8.391 0-13.36 4.719Q6 8.016 6 15.922q0 9.219 6.172 13.906 6.187 4.688 18.437 4.688h12.61v.89q0 6.203-4.078 9.594-4.078 3.39-11.453 3.39-4.688 0-9.141-1.124-4.438-1.125-8.531-3.375v8.312q4.921 1.906 9.562 2.844 4.64.953 9.031.953 11.875 0 17.735-6.156 5.86-6.14 5.86-18.64z" id="DejaVuSans-61"/><path d="M9.422 75.984h8.984V0H9.422z" id="DejaVuSans-6c"/></defs><g transform="matrix(.1 0 0 -.1 206.88 351.018)"><use xlink:href="#DejaVuSans-53"/><use x="63.477" xlink:href="#DejaVuSans-63"/><use x="118.457" xlink:href="#DejaVuSans-61"/><use x="179.736" xlink:href="#DejaVuSans-6c"/><use x="207.52" xlink:href="#DejaVuSans-61"/></g></g></g><g id="xtick_3"><use x="309.6" xlink:href="#mf384628478" y="336.42" stroke="#000" stroke-width=".8" id="line2d_3"/><g id="text_3"><defs><path d="M9.813 72.906h13.28l32.329-60.984v60.984h9.562V0h-13.28L19.39 60.984V0H9.813z" id="DejaVuSans-4e"/><path d="M45.406 46.39v29.594h8.985V0h-8.985v8.203Q42.578 3.328 38.25.953q-4.313-2.375-10.375-2.375-9.906 0-16.14 7.906-6.22 7.922-6.22 20.813 0 12.89 6.22 20.797Q17.968 56 27.874 56q6.063 0 10.375-2.375 4.328-2.36 7.156-7.234zm-30.61-19.093q0-9.906 4.079-15.547 4.078-5.64 11.203-5.64 7.125 0 11.219 5.64 4.11 5.64 4.11 15.547 0 9.906-4.11 15.547-4.094 5.64-11.219 5.64-7.125 0-11.203-5.64-4.078-5.64-4.078-15.547z" id="DejaVuSans-64"/><path d="M56.203 29.594v-4.39H14.891q.593-9.282 5.593-14.142 5-4.859 13.938-4.859 5.172 0 10.031 1.266 4.86 1.265 9.656 3.812v-8.5Q49.266.734 44.187-.344 39.11-1.422 33.892-1.422q-13.094 0-20.735 7.61-7.64 7.625-7.64 20.625 0 13.421 7.25 21.296Q20.016 56 32.328 56q11.031 0 17.453-7.11 6.422-7.093 6.422-19.296zm-8.984 2.64q-.094 7.36-4.125 11.75-4.032 4.407-10.672 4.407-7.516 0-12.031-4.25-4.516-4.25-5.203-11.97z" id="DejaVuSans-65"/></defs><g transform="matrix(.1 0 0 -.1 296.55 351.018)"><use xlink:href="#DejaVuSans-4e"/><use x="74.805" xlink:href="#DejaVuSans-6f"/><use x="135.986" xlink:href="#DejaVuSans-64"/><use x="199.463" xlink:href="#DejaVuSans-65"/></g></g></g><g id="xtick_4"><use x="398.88" xlink:href="#mf384628478" y="336.42" stroke="#000" stroke-width=".8" id="line2d_4"/><g id="text_4"><defs><path d="M9.813 72.906h9.859V5.078q0-13.187-5-19.14-5-5.954-16.094-5.954h-3.75v8.297h3.078q6.531 0 9.219 3.672Q9.813-4.39 9.813 5.078z" id="DejaVuSans-4a"/><path d="M2.984 54.688H12.5L29.594 8.797l17.093 45.89h9.516L35.687 0H23.485z" id="DejaVuSans-76"/></defs><g transform="matrix(.1 0 0 -.1 388.317 351.018)"><use xlink:href="#DejaVuSans-4a"/><use x="29.492" xlink:href="#DejaVuSans-61"/><use x="90.771" xlink:href="#DejaVuSans-76"/><use x="149.951" xlink:href="#DejaVuSans-61"/></g></g></g><g id="xtick_5"><use x="488.16" xlink:href="#mf384628478" y="336.42" stroke="#000" stroke-width=".8" id="line2d_5"/><g id="text_5"><defs><path d="M9.813 72.906h9.859v-29.89h35.844v29.89h9.859V0h-9.86v34.719H19.673V0h-9.86z" id="DejaVuSans-48"/><path d="M44.281 53.078v-8.5q-3.797 1.953-7.906 2.922-4.094.984-8.5.984-6.688 0-10.031-2.047-3.344-2.046-3.344-6.156 0-3.125 2.39-4.906 2.391-1.781 9.626-3.39l3.078-.688q9.562-2.047 13.593-5.781 4.032-3.735 4.032-10.422 0-7.625-6.032-12.078-6.03-4.438-16.578-4.438-4.39 0-9.156.86Q10.688.296 5.422 2v9.281q4.984-2.594 9.812-3.89 4.829-1.282 9.579-1.282 6.343 0 9.75 2.172 3.421 2.172 3.421 6.125 0 3.656-2.468 5.61-2.453 1.953-10.813 3.765l-3.125.735q-8.344 1.75-12.062 5.39-3.704 3.64-3.704 9.985 0 7.718 5.47 11.906Q16.75 56 26.811 56q4.97 0 9.36-.734 4.406-.72 8.11-2.188z" id="DejaVuSans-73"/><path d="M9.078 75.984h9.031V31.11l26.813 23.578H56.39l-29-25.578L57.625 0H45.906L18.11 26.703V0H9.08z" id="DejaVuSans-6b"/></defs><g transform="matrix(.1 0 0 -.1 469.983 351.018)"><use xlink:href="#DejaVuSans-48"/><use x="75.195" xlink:href="#DejaVuSans-61"/><use x="136.475" xlink:href="#DejaVuSans-73"/><use x="188.574" xlink:href="#DejaVuSans-6b"/><use x="246.438" xlink:href="#DejaVuSans-65"/><use x="307.961" xlink:href="#DejaVuSans-6c"/><use x="335.744" xlink:href="#DejaVuSans-6c"/></g></g></g><g id="xtick_6"><use x="577.44" xlink:href="#mf384628478" y="336.42" stroke="#000" stroke-width=".8" id="line2d_6"/><g id="text_6"><defs><path d="M9.422 54.688h8.984V0H9.422zm0 21.296h8.984v-11.39H9.422z" id="DejaVuSans-69"/><path d="M52 44.188q3.375 6.062 8.063 8.937Q64.75 56 71.093 56q8.548 0 13.188-5.984 4.64-5.97 4.64-17V0h-9.03v32.719q0 7.86-2.797 11.656-2.781 3.813-8.485 3.813-6.984 0-11.046-4.641-4.047-4.625-4.047-12.64V0h-9.032v32.719q0 7.906-2.78 11.687-2.782 3.782-8.595 3.782-6.89 0-10.953-4.657-4.047-4.656-4.047-12.625V0H9.08v54.688h9.03v-8.5q3.078 5.03 7.375 7.421Q29.781 56 35.687 56q5.97 0 10.141-3.031Q50 49.953 52 44.187z" id="DejaVuSans-6d"/></defs><g transform="matrix(.1 0 0 -.1 551.67 351.018)"><use xlink:href="#DejaVuSans-4e"/><use x="74.805" xlink:href="#DejaVuSans-6f"/><use x="135.986" xlink:href="#DejaVuSans-64"/><use x="199.463" xlink:href="#DejaVuSans-65"/><use x="260.986" xlink:href="#DejaVuSans-20"/><use x="292.773" xlink:href="#DejaVuSans-69"/><use x="320.557" xlink:href="#DejaVuSans-6d"/><use x="417.969" xlink:href="#DejaVuSans-6d"/></g></g></g></g><g id="matplotlib.axis_2"><g id="ytick_1"><g id="line2d_7"><defs><path d="M0 0h-3.5" id="m7168032ea4" stroke="#000" stroke-width=".8"/></defs><use x="86.4" xlink:href="#m7168032ea4" y="323.38" stroke="#000" stroke-width=".8"/></g><g id="text_7"><defs><path d="M31.781 66.406q-7.61 0-11.453-7.5Q16.5 51.422 16.5 36.375q0-14.984 3.828-22.484 3.844-7.5 11.453-7.5 7.672 0 11.5 7.5 3.844 7.5 3.844 22.484 0 15.047-3.844 22.531-3.828 7.5-11.5 7.5zm0 7.813q12.266 0 18.735-9.703 6.468-9.688 6.468-28.141 0-18.406-6.468-28.11-6.47-9.687-18.735-9.687-12.25 0-18.718 9.688-6.47 9.703-6.47 28.109 0 18.453 6.47 28.14Q19.53 74.22 31.78 74.22z" id="DejaVuSans-30"/></defs><use xlink:href="#DejaVuSans-30" transform="matrix(.1 0 0 -.1 73.037 327.18)"/></g></g><g id="ytick_2"><use x="86.4" xlink:href="#m7168032ea4" y="286.399" stroke="#000" stroke-width=".8" id="line2d_8"/><g id="text_8"><defs><path d="M19.188 8.297h34.421V0H7.33v8.297q5.609 5.812 15.296 15.594 9.703 9.797 12.188 12.64 4.734 5.313 6.609 9 1.89 3.688 1.89 7.25 0 5.813-4.078 9.469-4.078 3.672-10.625 3.672-4.64 0-9.797-1.61-5.14-1.609-11-4.89v9.969Q13.767 71.78 18.938 73q5.188 1.219 9.485 1.219 11.328 0 18.062-5.672 6.735-5.656 6.735-15.125 0-4.5-1.688-8.531-1.672-4.016-6.125-9.485-1.218-1.422-7.765-8.187-6.532-6.766-18.453-18.922z" id="DejaVuSans-32"/></defs><g transform="matrix(.1 0 0 -.1 66.675 290.198)"><use xlink:href="#DejaVuSans-32"/><use x="63.623" xlink:href="#DejaVuSans-30"/></g></g></g><g id="ytick_3"><use x="86.4" xlink:href="#m7168032ea4" y="249.417" stroke="#000" stroke-width=".8" id="line2d_9"/><g id="text_9"><defs><path d="M37.797 64.313L12.89 25.39h24.906zm-2.594 8.593H47.61V25.391h10.407v-8.203H47.609V0h-9.812v17.188H4.89v9.515z" id="DejaVuSans-34"/></defs><g transform="matrix(.1 0 0 -.1 66.675 253.216)"><use xlink:href="#DejaVuSans-34"/><use x="63.623" xlink:href="#DejaVuSans-30"/></g></g></g><g id="ytick_4"><use x="86.4" xlink:href="#m7168032ea4" y="212.435" stroke="#000" stroke-width=".8" id="line2d_10"/><g id="text_10"><defs><path d="M33.016 40.375q-6.641 0-10.532-4.547-3.875-4.531-3.875-12.437 0-7.86 3.875-12.438 3.891-4.562 10.532-4.562 6.64 0 10.515 4.562 3.875 4.578 3.875 12.438 0 7.906-3.875 12.437-3.875 4.547-10.515 4.547zm19.578 30.922v-8.984q-3.719 1.75-7.5 2.671-3.782.938-7.5.938-9.766 0-14.922-6.594-5.14-6.594-5.875-19.922 2.875 4.25 7.219 6.516 4.359 2.266 9.578 2.266 10.984 0 17.36-6.672 6.374-6.657 6.374-18.125 0-11.235-6.64-18.032-6.641-6.78-17.672-6.78-12.657 0-19.344 9.687-6.688 9.703-6.688 28.109 0 17.281 8.204 27.563 8.203 10.28 22.015 10.28 3.719 0 7.5-.734t7.89-2.187z" id="DejaVuSans-36"/></defs><g transform="matrix(.1 0 0 -.1 66.675 216.234)"><use xlink:href="#DejaVuSans-36"/><use x="63.623" xlink:href="#DejaVuSans-30"/></g></g></g><g id="ytick_5"><use x="86.4" xlink:href="#m7168032ea4" y="175.453" stroke="#000" stroke-width=".8" id="line2d_11"/><g id="text_11"><defs><path d="M31.781 34.625q-7.031 0-11.062-3.766-4.016-3.765-4.016-10.343 0-6.594 4.016-10.36Q24.75 6.391 31.78 6.391q7.032 0 11.078 3.78 4.063 3.798 4.063 10.345 0 6.578-4.031 10.343-4.016 3.766-11.11 3.766zm-9.86 4.188q-6.343 1.562-9.89 5.906Q8.5 49.079 8.5 55.329q0 8.733 6.219 13.812 6.234 5.078 17.062 5.078 10.89 0 17.094-5.078 6.203-5.079 6.203-13.813 0-6.25-3.547-10.61-3.531-4.343-9.828-5.906 7.125-1.656 11.094-6.5 3.984-4.828 3.984-11.796 0-10.61-6.468-16.282-6.47-5.656-18.532-5.656-12.047 0-18.531 5.656-6.469 5.672-6.469 16.282 0 6.968 4 11.797 4.016 4.843 11.14 6.5zM18.314 54.39q0-5.657 3.53-8.828 3.548-3.172 9.938-3.172 6.36 0 9.938 3.172 3.593 3.171 3.593 8.828 0 5.672-3.593 8.843-3.578 3.172-9.938 3.172-6.39 0-9.937-3.172-3.532-3.172-3.532-8.843z" id="DejaVuSans-38"/></defs><g transform="matrix(.1 0 0 -.1 66.675 179.252)"><use xlink:href="#DejaVuSans-38"/><use x="63.623" xlink:href="#DejaVuSans-30"/></g></g></g><g id="ytick_6"><use x="86.4" xlink:href="#m7168032ea4" y="138.471" stroke="#000" stroke-width=".8" id="line2d_12"/><g id="text_12"><defs><path d="M12.406 8.297h16.11v55.625l-17.532-3.516v8.985l17.438 3.515h9.86V8.296H54.39V0H12.406z" id="DejaVuSans-31"/></defs><g transform="matrix(.1 0 0 -.1 60.313 142.27)"><use xlink:href="#DejaVuSans-31"/><use x="63.623" xlink:href="#DejaVuSans-30"/><use x="127.246" xlink:href="#DejaVuSans-30"/></g></g></g><g id="ytick_7"><use x="86.4" xlink:href="#m7168032ea4" y="101.489" stroke="#000" stroke-width=".8" id="line2d_13"/><g transform="matrix(.1 0 0 -.1 60.313 105.288)" id="text_13"><use xlink:href="#DejaVuSans-31"/><use x="63.623" xlink:href="#DejaVuSans-32"/><use x="127.246" xlink:href="#DejaVuSans-30"/></g></g><g id="ytick_8"><use x="86.4" xlink:href="#m7168032ea4" y="64.507" stroke="#000" stroke-width=".8" id="line2d_14"/><g transform="matrix(.1 0 0 -.1 60.313 68.306)" id="text_14"><use xlink:href="#DejaVuSans-31"/><use x="63.623" xlink:href="#DejaVuSans-34"/><use x="127.246" xlink:href="#DejaVuSans-30"/></g></g></g><path clip-path="url(#p1e4460d575)" d="M108.72 319.455h44.64v-11.288h-44.64v11.288" fill="none" stroke="#000" stroke-linecap="square" id="line2d_15"/><path clip-path="url(#p1e4460d575)" d="M131.04 319.455v3.498" fill="none" stroke="#000" stroke-linecap="square" id="line2d_16"/><path clip-path="url(#p1e4460d575)" d="M131.04 308.167V291.88" fill="none" stroke="#000" stroke-linecap="square" id="line2d_17"/><path clip-path="url(#p1e4460d575)" d="M119.88 322.953h22.32" fill="none" stroke="#000" stroke-linecap="square" id="line2d_18"/><path clip-path="url(#p1e4460d575)" d="M119.88 291.881h22.32" fill="none" stroke="#000" stroke-linecap="square" id="line2d_19"/><g id="line2d_20"><defs><path d="M0 3a3 3 0 1 0 0-6 3 3 0 0 0 0 6z" id="m835b99d4a9" stroke="#000"/></defs><g clip-path="url(#p1e4460d575)" fill="none" stroke="#000"><use x="131.04" xlink:href="#m835b99d4a9" y="173.504"/><use x="131.04" xlink:href="#m835b99d4a9" y="252.996"/><use x="131.04" xlink:href="#m835b99d4a9" y="282.593"/><use x="131.04" xlink:href="#m835b99d4a9" y="130.923"/><use x="131.04" xlink:href="#m835b99d4a9" y="289.975"/><use x="131.04" xlink:href="#m835b99d4a9" y="273.361"/><use x="131.04" xlink:href="#m835b99d4a9" y="280.757"/><use x="131.04" xlink:href="#m835b99d4a9" y="288.976"/><use x="131.04" xlink:href="#m835b99d4a9" y="288.177"/><use x="131.04" xlink:href="#m835b99d4a9" y="247.464"/><use x="131.04" xlink:href="#m835b99d4a9" y="275.163"/><use x="131.04" xlink:href="#m835b99d4a9" y="288.109"/><use x="131.04" xlink:href="#m835b99d4a9" y="216.031"/></g></g><path clip-path="url(#p1e4460d575)" d="M198 321.262h44.64v-13.026H198v13.026" fill="none" stroke="#000" stroke-linecap="square" id="line2d_21"/><path clip-path="url(#p1e4460d575)" d="M220.32 321.262v1.928" fill="none" stroke="#000" stroke-linecap="square" id="line2d_22"/><path clip-path="url(#p1e4460d575)" d="M220.32 308.236v-19.252" fill="none" stroke="#000" stroke-linecap="square" id="line2d_23"/><path clip-path="url(#p1e4460d575)" d="M209.16 323.19h22.32" fill="none" stroke="#000" stroke-linecap="square" id="line2d_24"/><path clip-path="url(#p1e4460d575)" d="M209.16 288.984h22.32" fill="none" stroke="#000" stroke-linecap="square" id="line2d_25"/><g clip-path="url(#p1e4460d575)" fill="none" stroke="#000" id="line2d_26"><use x="220.32" xlink:href="#m835b99d4a9" y="282.573"/><use x="220.32" xlink:href="#m835b99d4a9" y="283.348"/><use x="220.32" xlink:href="#m835b99d4a9" y="281.517"/><use x="220.32" xlink:href="#m835b99d4a9" y="280.766"/><use x="220.32" xlink:href="#m835b99d4a9" y="279.501"/><use x="220.32" xlink:href="#m835b99d4a9" y="282.954"/><use x="220.32" xlink:href="#m835b99d4a9" y="281.253"/><use x="220.32" xlink:href="#m835b99d4a9" y="279.564"/><use x="220.32" xlink:href="#m835b99d4a9" y="280.698"/><use x="220.32" xlink:href="#m835b99d4a9" y="284.181"/><use x="220.32" xlink:href="#m835b99d4a9" y="284.978"/><use x="220.32" xlink:href="#m835b99d4a9" y="282.44"/><use x="220.32" xlink:href="#m835b99d4a9" y="285.444"/><use x="220.32" xlink:href="#m835b99d4a9" y="284.463"/><use x="220.32" xlink:href="#m835b99d4a9" y="280.927"/><use x="220.32" xlink:href="#m835b99d4a9" y="279.84"/><use x="220.32" xlink:href="#m835b99d4a9" y="281.326"/><use x="220.32" xlink:href="#m835b99d4a9" y="287.822"/><use x="220.32" xlink:href="#m835b99d4a9" y="283.183"/><use x="220.32" xlink:href="#m835b99d4a9" y="280.215"/><use x="220.32" xlink:href="#m835b99d4a9" y="284.982"/><use x="220.32" xlink:href="#m835b99d4a9" y="281.345"/><use x="220.32" xlink:href="#m835b99d4a9" y="279.315"/><use x="220.32" xlink:href="#m835b99d4a9" y="281.794"/><use x="220.32" xlink:href="#m835b99d4a9" y="283.651"/></g><path clip-path="url(#p1e4460d575)" d="M287.28 309.697h44.64v-59.356h-44.64v59.356" fill="none" stroke="#000" stroke-linecap="square" id="line2d_27"/><path clip-path="url(#p1e4460d575)" d="M309.6 309.697v12.39" fill="none" stroke="#000" stroke-linecap="square" id="line2d_28"/><path clip-path="url(#p1e4460d575)" d="M309.6 250.341v-44.008" fill="none" stroke="#000" stroke-linecap="square" id="line2d_29"/><path clip-path="url(#p1e4460d575)" d="M298.44 322.086h22.32" fill="none" stroke="#000" stroke-linecap="square" id="line2d_30"/><path clip-path="url(#p1e4460d575)" d="M298.44 206.333h22.32" fill="none" stroke="#000" stroke-linecap="square" id="line2d_31"/><g clip-path="url(#p1e4460d575)" fill="none" stroke="#000" id="line2d_32"><use x="309.6" xlink:href="#m835b99d4a9" y="133.663"/><use x="309.6" xlink:href="#m835b99d4a9" y="109.255"/><use x="309.6" xlink:href="#m835b99d4a9" y="130.335"/><use x="309.6" xlink:href="#m835b99d4a9" y="58.59"/><use x="309.6" xlink:href="#m835b99d4a9" y="144.018"/><use x="309.6" xlink:href="#m835b99d4a9" y="119.055"/><use x="309.6" xlink:href="#m835b99d4a9" y="128.486"/><use x="309.6" xlink:href="#m835b99d4a9" y="88.545"/><use x="309.6" xlink:href="#m835b99d4a9" y="134.773"/><use x="309.6" xlink:href="#m835b99d4a9" y="108.7"/><use x="309.6" xlink:href="#m835b99d4a9" y="100.195"/><use x="309.6" xlink:href="#m835b99d4a9" y="109.255"/><use x="309.6" xlink:href="#m835b99d4a9" y="110.734"/><use x="309.6" xlink:href="#m835b99d4a9" y="86.696"/><use x="309.6" xlink:href="#m835b99d4a9" y="135.327"/><use x="309.6" xlink:href="#m835b99d4a9" y="125.897"/><use x="309.6" xlink:href="#m835b99d4a9" y="112.029"/><use x="309.6" xlink:href="#m835b99d4a9" y="90.949"/><use x="309.6" xlink:href="#m835b99d4a9" y="155.668"/><use x="309.6" xlink:href="#m835b99d4a9" y="129.595"/></g><path clip-path="url(#p1e4460d575)" d="M376.56 315.127h44.64v-29.232h-44.64v29.232" fill="none" stroke="#000" stroke-linecap="square" id="line2d_33"/><path clip-path="url(#p1e4460d575)" d="M398.88 315.127v7.499" fill="none" stroke="#000" stroke-linecap="square" id="line2d_34"/><path clip-path="url(#p1e4460d575)" d="M398.88 285.895v-33.18" fill="none" stroke="#000" stroke-linecap="square" id="line2d_35"/><path clip-path="url(#p1e4460d575)" d="M387.72 322.626h22.32" fill="none" stroke="#000" stroke-linecap="square" id="line2d_36"/><path clip-path="url(#p1e4460d575)" d="M387.72 252.715h22.32" fill="none" stroke="#000" stroke-linecap="square" id="line2d_37"/><path clip-path="url(#p1e4460d575)" d="M465.84 317.833h44.64V262.36h-44.64v55.473" fill="none" stroke="#000" stroke-linecap="square" id="line2d_39"/><path clip-path="url(#p1e4460d575)" d="M488.16 317.833v3.698" fill="none" stroke="#000" stroke-linecap="square" id="line2d_40"/><path clip-path="url(#p1e4460d575)" d="M488.16 262.36v-62.869" fill="none" stroke="#000" stroke-linecap="square" id="line2d_41"/><path clip-path="url(#p1e4460d575)" d="M477 321.531h22.32" fill="none" stroke="#000" stroke-linecap="square" id="line2d_42"/><path clip-path="url(#p1e4460d575)" d="M477 199.491h22.32" fill="none" stroke="#000" stroke-linecap="square" id="line2d_43"/><path clip-path="url(#p1e4460d575)" d="M555.12 313.765h44.64v-2.219h-44.64v2.22" fill="none" stroke="#000" stroke-linecap="square" id="line2d_45"/><path clip-path="url(#p1e4460d575)" d="M577.44 313.765v2.959" fill="none" stroke="#000" stroke-linecap="square" id="line2d_46"/><path clip-path="url(#p1e4460d575)" d="M577.44 311.546v-3.328" fill="none" stroke="#000" stroke-linecap="square" id="line2d_47"/><path clip-path="url(#p1e4460d575)" d="M566.28 316.724h22.32" fill="none" stroke="#000" stroke-linecap="square" id="line2d_48"/><path clip-path="url(#p1e4460d575)" d="M566.28 308.218h22.32" fill="none" stroke="#000" stroke-linecap="square" id="line2d_49"/><g clip-path="url(#p1e4460d575)" fill="none" stroke="#000" id="line2d_50"><use x="577.44" xlink:href="#m835b99d4a9" y="321.531"/><use x="577.44" xlink:href="#m835b99d4a9" y="320.792"/><use x="577.44" xlink:href="#m835b99d4a9" y="322.456"/><use x="577.44" xlink:href="#m835b99d4a9" y="321.716"/><use x="577.44" xlink:href="#m835b99d4a9" y="320.792"/><use x="577.44" xlink:href="#m835b99d4a9" y="320.792"/><use x="577.44" xlink:href="#m835b99d4a9" y="320.052"/><use x="577.44" xlink:href="#m835b99d4a9" y="318.388"/><use x="577.44" xlink:href="#m835b99d4a9" y="318.018"/><use x="577.44" xlink:href="#m835b99d4a9" y="318.203"/><use x="577.44" xlink:href="#m835b99d4a9" y="320.977"/><use x="577.44" xlink:href="#m835b99d4a9" y="321.901"/><use x="577.44" xlink:href="#m835b99d4a9" y="321.716"/><use x="577.44" xlink:href="#m835b99d4a9" y="322.456"/><use x="577.44" xlink:href="#m835b99d4a9" y="321.716"/><use x="577.44" xlink:href="#m835b99d4a9" y="320.977"/><use x="577.44" xlink:href="#m835b99d4a9" y="320.607"/><use x="577.44" xlink:href="#m835b99d4a9" y="319.312"/><use x="577.44" xlink:href="#m835b99d4a9" y="318.758"/><use x="577.44" xlink:href="#m835b99d4a9" y="318.758"/><use x="577.44" xlink:href="#m835b99d4a9" y="318.388"/><use x="577.44" xlink:href="#m835b99d4a9" y="319.128"/><use x="577.44" xlink:href="#m835b99d4a9" y="321.901"/><use x="577.44" xlink:href="#m835b99d4a9" y="321.716"/><use x="577.44" xlink:href="#m835b99d4a9" y="322.456"/><use x="577.44" xlink:href="#m835b99d4a9" y="321.531"/><use x="577.44" xlink:href="#m835b99d4a9" y="320.977"/><use x="577.44" xlink:href="#m835b99d4a9" y="320.607"/><use x="577.44" xlink:href="#m835b99d4a9" y="319.128"/><use x="577.44" xlink:href="#m835b99d4a9" y="319.312"/><use x="577.44" xlink:href="#m835b99d4a9" y="318.018"/><use x="577.44" xlink:href="#m835b99d4a9" y="317.833"/><use x="577.44" xlink:href="#m835b99d4a9" y="317.833"/><use x="577.44" xlink:href="#m835b99d4a9" y="320.607"/><use x="577.44" xlink:href="#m835b99d4a9" y="321.531"/><use x="577.44" xlink:href="#m835b99d4a9" y="322.456"/><use x="577.44" xlink:href="#m835b99d4a9" y="321.901"/><use x="577.44" xlink:href="#m835b99d4a9" y="320.977"/><use x="577.44" xlink:href="#m835b99d4a9" y="320.422"/><use x="577.44" xlink:href="#m835b99d4a9" y="319.497"/><use x="577.44" xlink:href="#m835b99d4a9" y="318.388"/><use x="577.44" xlink:href="#m835b99d4a9" y="319.128"/><use x="577.44" xlink:href="#m835b99d4a9" y="318.203"/><use x="577.44" xlink:href="#m835b99d4a9" y="319.128"/><use x="577.44" xlink:href="#m835b99d4a9" y="321.901"/><use x="577.44" xlink:href="#m835b99d4a9" y="321.716"/><use x="577.44" xlink:href="#m835b99d4a9" y="322.456"/><use x="577.44" xlink:href="#m835b99d4a9" y="321.901"/><use x="577.44" xlink:href="#m835b99d4a9" y="320.607"/><use x="577.44" xlink:href="#m835b99d4a9" y="320.607"/><use x="577.44" xlink:href="#m835b99d4a9" y="319.128"/><use x="577.44" xlink:href="#m835b99d4a9" y="318.943"/><use x="577.44" xlink:href="#m835b99d4a9" y="318.573"/><use x="577.44" xlink:href="#m835b99d4a9" y="317.833"/><use x="577.44" xlink:href="#m835b99d4a9" y="320.052"/><use x="577.44" xlink:href="#m835b99d4a9" y="322.086"/><use x="577.44" xlink:href="#m835b99d4a9" y="321.901"/><use x="577.44" xlink:href="#m835b99d4a9" y="322.456"/><use x="577.44" xlink:href="#m835b99d4a9" y="321.716"/><use x="577.44" xlink:href="#m835b99d4a9" y="320.422"/><use x="577.44" xlink:href="#m835b99d4a9" y="320.607"/><use x="577.44" xlink:href="#m835b99d4a9" y="318.758"/><use x="577.44" xlink:href="#m835b99d4a9" y="318.388"/><use x="577.44" xlink:href="#m835b99d4a9" y="318.758"/><use x="577.44" xlink:href="#m835b99d4a9" y="317.833"/><use x="577.44" xlink:href="#m835b99d4a9" y="322.086"/><use x="577.44" xlink:href="#m835b99d4a9" y="321.716"/><use x="577.44" xlink:href="#m835b99d4a9" y="322.086"/><use x="577.44" xlink:href="#m835b99d4a9" y="321.716"/><use x="577.44" xlink:href="#m835b99d4a9" y="320.977"/><use x="577.44" xlink:href="#m835b99d4a9" y="320.607"/><use x="577.44" xlink:href="#m835b99d4a9" y="318.758"/><use x="577.44" xlink:href="#m835b99d4a9" y="317.833"/><use x="577.44" xlink:href="#m835b99d4a9" y="318.573"/><use x="577.44" xlink:href="#m835b99d4a9" y="318.758"/><use x="577.44" xlink:href="#m835b99d4a9" y="318.018"/><use x="577.44" xlink:href="#m835b99d4a9" y="321.901"/><use x="577.44" xlink:href="#m835b99d4a9" y="321.716"/><use x="577.44" xlink:href="#m835b99d4a9" y="322.456"/><use x="577.44" xlink:href="#m835b99d4a9" y="321.716"/><use x="577.44" xlink:href="#m835b99d4a9" y="320.977"/><use x="577.44" xlink:href="#m835b99d4a9" y="320.977"/><use x="577.44" xlink:href="#m835b99d4a9" y="320.052"/><use x="577.44" xlink:href="#m835b99d4a9" y="319.312"/><use x="577.44" xlink:href="#m835b99d4a9" y="318.573"/><use x="577.44" xlink:href="#m835b99d4a9" y="318.388"/><use x="577.44" xlink:href="#m835b99d4a9" y="319.682"/><use x="577.44" xlink:href="#m835b99d4a9" y="322.086"/><use x="577.44" xlink:href="#m835b99d4a9" y="321.901"/><use x="577.44" xlink:href="#m835b99d4a9" y="322.456"/><use x="577.44" xlink:href="#m835b99d4a9" y="321.531"/><use x="577.44" xlink:href="#m835b99d4a9" y="320.607"/><use x="577.44" xlink:href="#m835b99d4a9" y="320.792"/><use x="577.44" xlink:href="#m835b99d4a9" y="319.312"/><use x="577.44" xlink:href="#m835b99d4a9" y="318.388"/><use x="577.44" xlink:href="#m835b99d4a9" y="319.128"/><use x="577.44" xlink:href="#m835b99d4a9" y="318.758"/><use x="577.44" xlink:href="#m835b99d4a9" y="319.682"/><use x="577.44" xlink:href="#m835b99d4a9" y="321.901"/><use x="577.44" xlink:href="#m835b99d4a9" y="321.716"/><use x="577.44" xlink:href="#m835b99d4a9" y="322.271"/><use x="577.44" xlink:href="#m835b99d4a9" y="321.716"/><use x="577.44" xlink:href="#m835b99d4a9" y="320.422"/><use x="577.44" xlink:href="#m835b99d4a9" y="320.422"/><use x="577.44" xlink:href="#m835b99d4a9" y="318.943"/><use x="577.44" xlink:href="#m835b99d4a9" y="318.018"/><use x="577.44" xlink:href="#m835b99d4a9" y="318.388"/><use x="577.44" xlink:href="#m835b99d4a9" y="318.018"/><use x="577.44" xlink:href="#m835b99d4a9" y="319.128"/><use x="577.44" xlink:href="#m835b99d4a9" y="306.739"/><use x="577.44" xlink:href="#m835b99d4a9" y="305.259"/><use x="577.44" xlink:href="#m835b99d4a9" y="307.478"/><use x="577.44" xlink:href="#m835b99d4a9" y="305.259"/><use x="577.44" xlink:href="#m835b99d4a9" y="306.369"/><use x="577.44" xlink:href="#m835b99d4a9" y="306.739"/><use x="577.44" xlink:href="#m835b99d4a9" y="304.52"/><use x="577.44" xlink:href="#m835b99d4a9" y="303.78"/><use x="577.44" xlink:href="#m835b99d4a9" y="303.04"/><use x="577.44" xlink:href="#m835b99d4a9" y="301.746"/><use x="577.44" xlink:href="#m835b99d4a9" y="307.663"/><use x="577.44" xlink:href="#m835b99d4a9" y="305.629"/><use x="577.44" xlink:href="#m835b99d4a9" y="306.924"/><use x="577.44" xlink:href="#m835b99d4a9" y="304.89"/><use x="577.44" xlink:href="#m835b99d4a9" y="298.787"/><use x="577.44" xlink:href="#m835b99d4a9" y="299.527"/><use x="577.44" xlink:href="#m835b99d4a9" y="299.157"/><use x="577.44" xlink:href="#m835b99d4a9" y="307.108"/><use x="577.44" xlink:href="#m835b99d4a9" y="305.074"/><use x="577.44" xlink:href="#m835b99d4a9" y="300.082"/><use x="577.44" xlink:href="#m835b99d4a9" y="303.965"/><use x="577.44" xlink:href="#m835b99d4a9" y="299.157"/><use x="577.44" xlink:href="#m835b99d4a9" y="305.444"/><use x="577.44" xlink:href="#m835b99d4a9" y="307.108"/><use x="577.44" xlink:href="#m835b99d4a9" y="305.074"/><use x="577.44" xlink:href="#m835b99d4a9" y="306.739"/><use x="577.44" xlink:href="#m835b99d4a9" y="306.554"/><use x="577.44" xlink:href="#m835b99d4a9" y="308.033"/><use x="577.44" xlink:href="#m835b99d4a9" y="305.074"/><use x="577.44" xlink:href="#m835b99d4a9" y="306.184"/><use x="577.44" xlink:href="#m835b99d4a9" y="306.739"/><use x="577.44" xlink:href="#m835b99d4a9" y="307.293"/><use x="577.44" xlink:href="#m835b99d4a9" y="307.108"/><use x="577.44" xlink:href="#m835b99d4a9" y="306.554"/><use x="577.44" xlink:href="#m835b99d4a9" y="306.184"/><use x="577.44" xlink:href="#m835b99d4a9" y="297.863"/><use x="577.44" xlink:href="#m835b99d4a9" y="295.089"/><use x="577.44" xlink:href="#m835b99d4a9" y="306.369"/><use x="577.44" xlink:href="#m835b99d4a9" y="301.376"/><use x="577.44" xlink:href="#m835b99d4a9" y="296.384"/><use x="577.44" xlink:href="#m835b99d4a9" y="298.418"/><use x="577.44" xlink:href="#m835b99d4a9" y="304.52"/><use x="577.44" xlink:href="#m835b99d4a9" y="295.274"/><use x="577.44" xlink:href="#m835b99d4a9" y="307.478"/><use x="577.44" xlink:href="#m835b99d4a9" y="303.41"/><use x="577.44" xlink:href="#m835b99d4a9" y="307.478"/><use x="577.44" xlink:href="#m835b99d4a9" y="296.938"/><use x="577.44" xlink:href="#m835b99d4a9" y="307.108"/><use x="577.44" xlink:href="#m835b99d4a9" y="304.15"/><use x="577.44" xlink:href="#m835b99d4a9" y="306.739"/><use x="577.44" xlink:href="#m835b99d4a9" y="306.369"/><use x="577.44" xlink:href="#m835b99d4a9" y="307.663"/><use x="577.44" xlink:href="#m835b99d4a9" y="306.369"/><use x="577.44" xlink:href="#m835b99d4a9" y="304.89"/><use x="577.44" xlink:href="#m835b99d4a9" y="305.074"/><use x="577.44" xlink:href="#m835b99d4a9" y="305.629"/><use x="577.44" xlink:href="#m835b99d4a9" y="307.108"/><use x="577.44" xlink:href="#m835b99d4a9" y="307.663"/><use x="577.44" xlink:href="#m835b99d4a9" y="304.52"/><use x="577.44" xlink:href="#m835b99d4a9" y="303.965"/><use x="577.44" xlink:href="#m835b99d4a9" y="304.52"/><use x="577.44" xlink:href="#m835b99d4a9" y="288.617"/><use x="577.44" xlink:href="#m835b99d4a9" y="296.753"/><use x="577.44" xlink:href="#m835b99d4a9" y="303.04"/><use x="577.44" xlink:href="#m835b99d4a9" y="299.342"/><use x="577.44" xlink:href="#m835b99d4a9" y="307.663"/><use x="577.44" xlink:href="#m835b99d4a9" y="307.848"/><use x="577.44" xlink:href="#m835b99d4a9" y="307.293"/><use x="577.44" xlink:href="#m835b99d4a9" y="302.855"/><use x="577.44" xlink:href="#m835b99d4a9" y="304.15"/><use x="577.44" xlink:href="#m835b99d4a9" y="298.972"/><use x="577.44" xlink:href="#m835b99d4a9" y="306.739"/><use x="577.44" xlink:href="#m835b99d4a9" y="304.335"/><use x="577.44" xlink:href="#m835b99d4a9" y="306.924"/><use x="577.44" xlink:href="#m835b99d4a9" y="306.184"/><use x="577.44" xlink:href="#m835b99d4a9" y="306.554"/><use x="577.44" xlink:href="#m835b99d4a9" y="305.074"/><use x="577.44" xlink:href="#m835b99d4a9" y="305.259"/><use x="577.44" xlink:href="#m835b99d4a9" y="304.52"/><use x="577.44" xlink:href="#m835b99d4a9" y="303.41"/><use x="577.44" xlink:href="#m835b99d4a9" y="306.739"/><use x="577.44" xlink:href="#m835b99d4a9" y="307.663"/><use x="577.44" xlink:href="#m835b99d4a9" y="302.116"/><use x="577.44" xlink:href="#m835b99d4a9" y="302.855"/><use x="577.44" xlink:href="#m835b99d4a9" y="301.006"/><use x="577.44" xlink:href="#m835b99d4a9" y="301.561"/><use x="577.44" xlink:href="#m835b99d4a9" y="301.931"/><use x="577.44" xlink:href="#m835b99d4a9" y="299.712"/><use x="577.44" xlink:href="#m835b99d4a9" y="302.301"/><use x="577.44" xlink:href="#m835b99d4a9" y="302.301"/><use x="577.44" xlink:href="#m835b99d4a9" y="303.225"/><use x="577.44" xlink:href="#m835b99d4a9" y="305.259"/><use x="577.44" xlink:href="#m835b99d4a9" y="304.15"/><use x="577.44" xlink:href="#m835b99d4a9" y="307.293"/><use x="577.44" xlink:href="#m835b99d4a9" y="295.274"/><use x="577.44" xlink:href="#m835b99d4a9" y="306.739"/><use x="577.44" xlink:href="#m835b99d4a9" y="307.663"/><use x="577.44" xlink:href="#m835b99d4a9" y="305.259"/><use x="577.44" xlink:href="#m835b99d4a9" y="306.739"/><use x="577.44" xlink:href="#m835b99d4a9" y="306.369"/><use x="577.44" xlink:href="#m835b99d4a9" y="303.965"/><use x="577.44" xlink:href="#m835b99d4a9" y="303.965"/><use x="577.44" xlink:href="#m835b99d4a9" y="303.41"/><use x="577.44" xlink:href="#m835b99d4a9" y="303.41"/><use x="577.44" xlink:href="#m835b99d4a9" y="305.999"/><use x="577.44" xlink:href="#m835b99d4a9" y="307.663"/><use x="577.44" xlink:href="#m835b99d4a9" y="305.074"/><use x="577.44" xlink:href="#m835b99d4a9" y="295.644"/><use x="577.44" xlink:href="#m835b99d4a9" y="308.033"/><use x="577.44" xlink:href="#m835b99d4a9" y="295.829"/><use x="577.44" xlink:href="#m835b99d4a9" y="295.089"/><use x="577.44" xlink:href="#m835b99d4a9" y="298.418"/><use x="577.44" xlink:href="#m835b99d4a9" y="299.712"/><use x="577.44" xlink:href="#m835b99d4a9" y="307.478"/><use x="577.44" xlink:href="#m835b99d4a9" y="305.999"/><use x="577.44" xlink:href="#m835b99d4a9" y="302.855"/><use x="577.44" xlink:href="#m835b99d4a9" y="306.739"/><use x="577.44" xlink:href="#m835b99d4a9" y="300.821"/><use x="577.44" xlink:href="#m835b99d4a9" y="308.033"/><use x="577.44" xlink:href="#m835b99d4a9" y="302.671"/><use x="577.44" xlink:href="#m835b99d4a9" y="304.705"/><use x="577.44" xlink:href="#m835b99d4a9" y="306.739"/><use x="577.44" xlink:href="#m835b99d4a9" y="304.89"/><use x="577.44" xlink:href="#m835b99d4a9" y="305.629"/><use x="577.44" xlink:href="#m835b99d4a9" y="304.15"/><use x="577.44" xlink:href="#m835b99d4a9" y="302.671"/><use x="577.44" xlink:href="#m835b99d4a9" y="304.15"/><use x="577.44" xlink:href="#m835b99d4a9" y="306.924"/><use x="577.44" xlink:href="#m835b99d4a9" y="304.15"/><use x="577.44" xlink:href="#m835b99d4a9" y="304.89"/><use x="577.44" xlink:href="#m835b99d4a9" y="297.123"/><use x="577.44" xlink:href="#m835b99d4a9" y="293.24"/><use x="577.44" xlink:href="#m835b99d4a9" y="300.267"/><use x="577.44" xlink:href="#m835b99d4a9" y="297.678"/><use x="577.44" xlink:href="#m835b99d4a9" y="302.301"/><use x="577.44" xlink:href="#m835b99d4a9" y="304.52"/><use x="577.44" xlink:href="#m835b99d4a9" y="307.293"/><use x="577.44" xlink:href="#m835b99d4a9" y="304.15"/><use x="577.44" xlink:href="#m835b99d4a9" y="302.671"/><use x="577.44" xlink:href="#m835b99d4a9" y="302.116"/><use x="577.44" xlink:href="#m835b99d4a9" y="305.444"/><use x="577.44" xlink:href="#m835b99d4a9" y="307.108"/><use x="577.44" xlink:href="#m835b99d4a9" y="306.369"/><use x="577.44" xlink:href="#m835b99d4a9" y="305.814"/><use x="577.44" xlink:href="#m835b99d4a9" y="306.184"/><use x="577.44" xlink:href="#m835b99d4a9" y="304.705"/><use x="577.44" xlink:href="#m835b99d4a9" y="303.41"/><use x="577.44" xlink:href="#m835b99d4a9" y="305.814"/><use x="577.44" xlink:href="#m835b99d4a9" y="307.293"/><use x="577.44" xlink:href="#m835b99d4a9" y="307.293"/><use x="577.44" xlink:href="#m835b99d4a9" y="304.15"/><use x="577.44" xlink:href="#m835b99d4a9" y="303.595"/><use x="577.44" xlink:href="#m835b99d4a9" y="296.753"/><use x="577.44" xlink:href="#m835b99d4a9" y="294.719"/><use x="577.44" xlink:href="#m835b99d4a9" y="305.999"/><use x="577.44" xlink:href="#m835b99d4a9" y="293.055"/><use x="577.44" xlink:href="#m835b99d4a9" y="304.52"/><use x="577.44" xlink:href="#m835b99d4a9" y="301.746"/><use x="577.44" xlink:href="#m835b99d4a9" y="306.369"/><use x="577.44" xlink:href="#m835b99d4a9" y="301.931"/><use x="577.44" xlink:href="#m835b99d4a9" y="302.116"/><use x="577.44" xlink:href="#m835b99d4a9" y="307.293"/><use x="577.44" xlink:href="#m835b99d4a9" y="301.561"/><use x="577.44" xlink:href="#m835b99d4a9" y="307.848"/><use x="577.44" xlink:href="#m835b99d4a9" y="307.663"/><use x="577.44" xlink:href="#m835b99d4a9" y="307.293"/><use x="577.44" xlink:href="#m835b99d4a9" y="306.369"/><use x="577.44" xlink:href="#m835b99d4a9" y="305.629"/><use x="577.44" xlink:href="#m835b99d4a9" y="306.924"/><use x="577.44" xlink:href="#m835b99d4a9" y="304.52"/><use x="577.44" xlink:href="#m835b99d4a9" y="303.595"/><use x="577.44" xlink:href="#m835b99d4a9" y="307.663"/><use x="577.44" xlink:href="#m835b99d4a9" y="306.924"/><use x="577.44" xlink:href="#m835b99d4a9" y="306.184"/><use x="577.44" xlink:href="#m835b99d4a9" y="306.554"/><use x="577.44" xlink:href="#m835b99d4a9" y="303.965"/><use x="577.44" xlink:href="#m835b99d4a9" y="295.459"/><use x="577.44" xlink:href="#m835b99d4a9" y="294.535"/><use x="577.44" xlink:href="#m835b99d4a9" y="299.342"/><use x="577.44" xlink:href="#m835b99d4a9" y="299.342"/><use x="577.44" xlink:href="#m835b99d4a9" y="296.938"/><use x="577.44" xlink:href="#m835b99d4a9" y="305.629"/><use x="577.44" xlink:href="#m835b99d4a9" y="301.191"/><use x="577.44" xlink:href="#m835b99d4a9" y="298.233"/><use x="577.44" xlink:href="#m835b99d4a9" y="298.972"/><use x="577.44" xlink:href="#m835b99d4a9" y="307.293"/><use x="577.44" xlink:href="#m835b99d4a9" y="306.924"/><use x="577.44" xlink:href="#m835b99d4a9" y="306.369"/><use x="577.44" xlink:href="#m835b99d4a9" y="304.52"/><use x="577.44" xlink:href="#m835b99d4a9" y="306.739"/><use x="577.44" xlink:href="#m835b99d4a9" y="307.848"/><use x="577.44" xlink:href="#m835b99d4a9" y="306.739"/><use x="577.44" xlink:href="#m835b99d4a9" y="303.965"/><use x="577.44" xlink:href="#m835b99d4a9" y="303.41"/><use x="577.44" xlink:href="#m835b99d4a9" y="305.814"/><use x="577.44" xlink:href="#m835b99d4a9" y="303.41"/><use x="577.44" xlink:href="#m835b99d4a9" y="302.855"/><use x="577.44" xlink:href="#m835b99d4a9" y="302.301"/><use x="577.44" xlink:href="#m835b99d4a9" y="296.384"/><use x="577.44" xlink:href="#m835b99d4a9" y="301.376"/><use x="577.44" xlink:href="#m835b99d4a9" y="302.855"/><use x="577.44" xlink:href="#m835b99d4a9" y="298.972"/><use x="577.44" xlink:href="#m835b99d4a9" y="308.033"/><use x="577.44" xlink:href="#m835b99d4a9" y="299.157"/><use x="577.44" xlink:href="#m835b99d4a9" y="307.478"/><use x="577.44" xlink:href="#m835b99d4a9" y="297.493"/><use x="577.44" xlink:href="#m835b99d4a9" y="307.293"/><use x="577.44" xlink:href="#m835b99d4a9" y="298.048"/><use x="577.44" xlink:href="#m835b99d4a9" y="305.074"/><use x="577.44" xlink:href="#m835b99d4a9" y="306.184"/><use x="577.44" xlink:href="#m835b99d4a9" y="303.225"/><use x="577.44" xlink:href="#m835b99d4a9" y="306.739"/><use x="577.44" xlink:href="#m835b99d4a9" y="306.369"/><use x="577.44" xlink:href="#m835b99d4a9" y="305.999"/><use x="577.44" xlink:href="#m835b99d4a9" y="306.739"/><use x="577.44" xlink:href="#m835b99d4a9" y="304.705"/><use x="577.44" xlink:href="#m835b99d4a9" y="306.369"/><use x="577.44" xlink:href="#m835b99d4a9" y="304.89"/><use x="577.44" xlink:href="#m835b99d4a9" y="306.184"/><use x="577.44" xlink:href="#m835b99d4a9" y="304.705"/><use x="577.44" xlink:href="#m835b99d4a9" y="305.814"/><use x="577.44" xlink:href="#m835b99d4a9" y="297.308"/><use x="577.44" xlink:href="#m835b99d4a9" y="301.006"/><use x="577.44" xlink:href="#m835b99d4a9" y="293.61"/><use x="577.44" xlink:href="#m835b99d4a9" y="296.753"/><use x="577.44" xlink:href="#m835b99d4a9" y="307.293"/><use x="577.44" xlink:href="#m835b99d4a9" y="307.478"/><use x="577.44" xlink:href="#m835b99d4a9" y="306.184"/><use x="577.44" xlink:href="#m835b99d4a9" y="302.486"/></g><path clip-path="url(#p1e4460d575)" d="M108.72 315.447h44.64" fill="none" stroke="#ff7f0e" stroke-linecap="square" id="line2d_51"/><g id="line2d_52"><defs><path d="M0-3l-3 6h6z" id="meb92510b00" stroke="#2ca02c"/></defs><g clip-path="url(#p1e4460d575)"><use x="131.04" xlink:href="#meb92510b00" y="307.041" fill="#2ca02c" stroke="#2ca02c"/></g></g><path clip-path="url(#p1e4460d575)" d="M198 318.009h44.64" fill="none" stroke="#ff7f0e" stroke-linecap="square" id="line2d_53"/><g clip-path="url(#p1e4460d575)" id="line2d_54"><use x="220.32" xlink:href="#meb92510b00" y="314.076" fill="#2ca02c" stroke="#2ca02c"/></g><path clip-path="url(#p1e4460d575)" d="M287.28 261.25h44.64" fill="none" stroke="#ff7f0e" stroke-linecap="square" id="line2d_55"/><g clip-path="url(#p1e4460d575)" id="line2d_56"><use x="309.6" xlink:href="#meb92510b00" y="266.874" fill="#2ca02c" stroke="#2ca02c"/></g><path clip-path="url(#p1e4460d575)" d="M376.56 296.098h44.64" fill="none" stroke="#ff7f0e" stroke-linecap="square" id="line2d_57"/><g clip-path="url(#p1e4460d575)" id="line2d_58"><use x="398.88" xlink:href="#meb92510b00" y="297.515" fill="#2ca02c" stroke="#2ca02c"/></g><path clip-path="url(#p1e4460d575)" d="M465.84 280.851h44.64" fill="none" stroke="#ff7f0e" stroke-linecap="square" id="line2d_59"/><g clip-path="url(#p1e4460d575)" id="line2d_60"><use x="488.16" xlink:href="#meb92510b00" y="283.45" fill="#2ca02c" stroke="#2ca02c"/></g><path clip-path="url(#p1e4460d575)" d="M555.12 312.84h44.64" fill="none" stroke="#ff7f0e" stroke-linecap="square" id="line2d_61"/><g clip-path="url(#p1e4460d575)" id="line2d_62"><use x="577.44" xlink:href="#meb92510b00" y="312.195" fill="#2ca02c" stroke="#2ca02c"/></g><path d="M86.4 336.42V45.36" fill="none" stroke="#000" stroke-linecap="square" stroke-width=".8" id="patch_3"/><path d="M622.08 336.42V45.36" fill="none" stroke="#000" stroke-linecap="square" stroke-width=".8" id="patch_4"/><path d="M86.4 336.42h535.68" fill="none" stroke="#000" stroke-linecap="square" stroke-width=".8" id="patch_5"/><path d="M86.4 45.36h535.68" fill="none" stroke="#000" stroke-linecap="square" stroke-width=".8" id="patch_6"/></g></g><defs><clipPath id="p1e4460d575"><path d="M86.4 45.36h535.68v291.06H86.4z"/></clipPath></defs></svg>