<svg height="504" viewBox="0 0 691 378" width="691pt" xmlns="http://www.w3.org/2000/svg" xmlns:xlink="http://www.w3.org/1999/xlink"><defs><style>*{stroke-linecap:butt;stroke-linejoin:round}</style></defs><g id="figure_1"><path d="M0 378h691.2V0H0z" fill="#fff" id="patch_1"/><g id="axes_1"><path d="M86.4 336.42h535.68V45.36H86.4z" fill="#fff" id="patch_2"/><g id="matplotlib.axis_1"><g id="xtick_1"><g id="line2d_1"><defs><path d="M0 0v3.5" id="me9bc7b0534" stroke="#000" stroke-width=".8"/></defs><use x="129.716" xlink:href="#me9bc7b0534" y="336.42" stroke="#000" stroke-width=".8"/></g><g id="text_1"><defs><path d="M59.516 10.406v19.578h-16.11v8.11h25.875V6.78Q63.578 2.734 56.687.656 49.813-1.422 42-1.422q-17.094 0-26.75 9.985-9.64 10-9.64 27.812 0 17.875 9.64 27.86 9.656 9.984 26.75 9.984 7.125 0 13.547-1.766 6.422-1.75 11.844-5.172v-10.5q-5.47 4.64-11.625 6.985-6.157 2.343-12.938 2.343-13.39 0-20.11-7.468-6.702-7.47-6.702-22.266 0-14.75 6.703-22.219 6.718-7.469 20.11-7.469 5.218 0 9.312.907 4.109.906 7.375 2.812z" id="DejaVuSans-47"/><path d="M30.61 48.39q-7.22 0-11.422-5.64-4.204-5.64-4.204-15.453 0-9.813 4.172-15.453 4.188-5.64 11.453-5.64 7.188 0 11.375 5.655 4.203 5.672 4.203 15.438 0 9.719-4.203 15.406-4.187 5.688-11.375 5.688zm0 7.61q11.718 0 18.406-7.625 6.703-7.61 6.703-21.078 0-13.422-6.703-21.078-6.688-7.64-18.407-7.64-11.765 0-18.437 7.64-6.656 7.656-6.656 21.078 0 13.469 6.656 21.078Q18.844 56 30.609 56z" id="DejaVuSans-6f"/></defs><g transform="matrix(.1 0 0 -.1 122.783 351.018)"><use xlink:href="#DejaVuSans-47"/><use x="77.49" xlink:href="#DejaVuSans-6f"/></g></g></g><g id="xtick_2"><use x="219.237" xlink:href="#me9bc7b0534" y="336.42" stroke="#000" stroke-width=".8" id="line2d_2"/><g id="text_2"><defs><path d="M53.516 70.516V60.89q-5.61 2.687-10.594 4-4.984 1.328-9.625 1.328-8.047 0-12.422-3.125t-4.375-8.89q0-4.845 2.906-7.313 2.907-2.453 11.016-3.97l5.953-1.218q11.031-2.11 16.281-7.406 5.25-5.297 5.25-14.172 0-10.61-7.11-16.078-7.093-5.469-20.812-5.469-5.172 0-11.015 1.172Q13.14.922 6.89 3.219v10.156q6-3.36 11.765-5.078 5.766-1.703 11.328-1.703 8.438 0 13.032 3.312 4.593 3.328 4.593 9.485 0 5.359-3.297 8.39-3.296 3.032-10.812 4.547L27.484 33.5q-11.03 2.188-15.968 6.875-4.922 4.688-4.922 13.047 0 9.672 6.812 15.234 6.813 5.563 18.766 5.563 5.14 0 10.453-.938 5.328-.922 10.89-2.765z" id="DejaVuSans-53"/><path d="M48.781 52.594v-8.407q-3.812 2.11-7.64 3.157-3.828 1.047-7.735 1.047-8.75 0-13.593-5.547-4.829-5.532-4.829-15.547 0-10.016 4.829-15.563 4.843-5.53 13.593-5.53 3.907 0 7.735 1.046 3.828 1.047 7.64 3.156V2.094Q45.016.344 40.984-.531q-4.015-.89-8.562-.89-12.36 0-19.64 7.765-7.266 7.765-7.266 20.953 0 13.375 7.343 21.031Q20.22 56 33.016 56q4.14 0 8.093-.86 3.953-.843 7.672-2.546z" id="DejaVuSans-63"/><path d="M34.281 27.484q-10.89 0-15.093-2.484-4.204-2.484-4.204-8.5 0-4.781 3.157-7.594 3.156-2.797 8.562-2.797 7.485 0 12 5.297 4.516 5.297 4.516 14.078v2zm17.922 3.72V0H43.22v8.297Q40.14 3.328 35.547.953q-4.594-2.375-11.234-2.375-8.391 0-13.36 4.719Q6 8.016 6 15.922q0 9.219 6.172 13.906 6.187 4.688 18.437 4.688h12.61v.89q0 6.203-4.078 9.594-4.078 3.39-11.453 3.39-4.688 0-9.141-1.124-4.438-1.125-8.531-3.375v8.312q4.921 1.906 9.562 2.844 4.64.953 9.031.953 11.875 0 17.735-6.156 5.86-6.14 5.86-18.64z" id="DejaVuSans-61"/><path d="M9.422 75.984h8.984V0H9.422z" id="DejaVuSans-6c"/></defs><g transform="matrix(.1 0 0 -.1 205.796 351.018)"><use xlink:href="#DejaVuSans-53"/><use x="63.477" xlink:href="#DejaVuSans-63"/><use x="118.457" xlink:href="#DejaVuSans-61"/><use x="179.736" xlink:href="#DejaVuSans-6c"/><use x="207.52" xlink:href="#DejaVuSans-61"/></g></g></g><g id="xtick_3"><use x="308.758" xlink:href="#me9bc7b0534" y="336.42" stroke="#000" stroke-width=".8" id="line2d_3"/><g id="text_3"><defs><path d="M9.813 72.906h13.28l32.329-60.984v60.984h9.562V0h-13.28L19.39 60.984V0H9.813z" id="DejaVuSans-4e"/><path d="M45.406 46.39v29.594h8.985V0h-8.985v8.203Q42.578 3.328 38.25.953q-4.313-2.375-10.375-2.375-9.906 0-16.14 7.906-6.22 7.922-6.22 20.813 0 12.89 6.22 20.797Q17.968 56 27.874 56q6.063 0 10.375-2.375 4.328-2.36 7.156-7.234zm-30.61-19.093q0-9.906 4.079-15.547 4.078-5.64 11.203-5.64 7.125 0 11.219 5.64 4.11 5.64 4.11 15.547 0 9.906-4.11 15.547-4.094 5.64-11.219 5.64-7.125 0-11.203-5.64-4.078-5.64-4.078-15.547z" id="DejaVuSans-64"/><path d="M56.203 29.594v-4.39H14.891q.593-9.282 5.593-14.142 5-4.859 13.938-4.859 5.172 0 10.031 1.266 4.86 1.265 9.656 3.812v-8.5Q49.266.734 44.187-.344 39.11-1.422 33.892-1.422q-13.094 0-20.735 7.61-7.64 7.625-7.64 20.625 0 13.421 7.25 21.296Q20.016 56 32.328 56q11.031 0 17.453-7.11 6.422-7.093 6.422-19.296zm-8.984 2.64q-.094 7.36-4.125 11.75-4.032 4.407-10.672 4.407-7.516 0-12.031-4.25-4.516-4.25-5.203-11.97z" id="DejaVuSans-65"/></defs><g transform="matrix(.1 0 0 -.1 295.707 351.018)"><use xlink:href="#DejaVuSans-4e"/><use x="74.805" xlink:href="#DejaVuSans-6f"/><use x="135.986" xlink:href="#DejaVuSans-64"/><use x="199.463" xlink:href="#DejaVuSans-65"/></g></g></g><g id="xtick_4"><use x="398.278" xlink:href="#me9bc7b0534" y="336.42" stroke="#000" stroke-width=".8" id="line2d_4"/><g id="text_4"><defs><path d="M9.813 72.906h9.859V5.078q0-13.187-5-19.14-5-5.954-16.094-5.954h-3.75v8.297h3.078q6.531 0 9.219 3.672Q9.813-4.39 9.813 5.078z" id="DejaVuSans-4a"/><path d="M2.984 54.688H12.5L29.594 8.797l17.093 45.89h9.516L35.687 0H23.485z" id="DejaVuSans-76"/></defs><g transform="matrix(.1 0 0 -.1 387.716 351.018)"><use xlink:href="#DejaVuSans-4a"/><use x="29.492" xlink:href="#DejaVuSans-61"/><use x="90.771" xlink:href="#DejaVuSans-76"/><use x="149.951" xlink:href="#DejaVuSans-61"/></g></g></g><g id="xtick_5"><use x="487.799" xlink:href="#me9bc7b0534" y="336.42" stroke="#000" stroke-width=".8" id="line2d_5"/><g id="text_5"><defs><path d="M9.813 72.906h9.859v-29.89h35.844v29.89h9.859V0h-9.86v34.719H19.673V0h-9.86z" id="DejaVuSans-48"/><path d="M44.281 53.078v-8.5q-3.797 1.953-7.906 2.922-4.094.984-8.5.984-6.688 0-10.031-2.047-3.344-2.046-3.344-6.156 0-3.125 2.39-4.906 2.391-1.781 9.626-3.39l3.078-.688q9.562-2.047 13.593-5.781 4.032-3.735 4.032-10.422 0-7.625-6.032-12.078-6.03-4.438-16.578-4.438-4.39 0-9.156.86Q10.688.296 5.422 2v9.281q4.984-2.594 9.812-3.89 4.829-1.282 9.579-1.282 6.343 0 9.75 2.172 3.421 2.172 3.421 6.125 0 3.656-2.468 5.61-2.453 1.953-10.813 3.765l-3.125.735q-8.344 1.75-12.062 5.39-3.704 3.64-3.704 9.985 0 7.718 5.47 11.906Q16.75 56 26.811 56q4.97 0 9.36-.734 4.406-.72 8.11-2.188z" id="DejaVuSans-73"/><path d="M9.078 75.984h9.031V31.11l26.813 23.578H56.39l-29-25.578L57.625 0H45.906L18.11 26.703V0H9.08z" id="DejaVuSans-6b"/></defs><g transform="matrix(.1 0 0 -.1 469.622 351.018)"><use xlink:href="#DejaVuSans-48"/><use x="75.195" xlink:href="#DejaVuSans-61"/><use x="136.475" xlink:href="#DejaVuSans-73"/><use x="188.574" xlink:href="#DejaVuSans-6b"/><use x="246.438" xlink:href="#DejaVuSans-65"/><use x="307.961" xlink:href="#DejaVuSans-6c"/><use x="335.744" xlink:href="#DejaVuSans-6c"/></g></g></g><g id="xtick_6"><use x="577.32" xlink:href="#me9bc7b0534" y="336.42" stroke="#000" stroke-width=".8" id="line2d_6"/><g id="text_6"><defs><path d="M9.422 54.688h8.984V0H9.422zm0 21.296h8.984v-11.39H9.422z" id="DejaVuSans-69"/><path d="M52 44.188q3.375 6.062 8.063 8.937Q64.75 56 71.093 56q8.548 0 13.188-5.984 4.64-5.97 4.64-17V0h-9.03v32.719q0 7.86-2.797 11.656-2.781 3.813-8.485 3.813-6.984 0-11.046-4.641-4.047-4.625-4.047-12.64V0h-9.032v32.719q0 7.906-2.78 11.687-2.782 3.782-8.595 3.782-6.89 0-10.953-4.657-4.047-4.656-4.047-12.625V0H9.08v54.688h9.03v-8.5q3.078 5.03 7.375 7.421Q29.781 56 35.687 56q5.97 0 10.141-3.031Q50 49.953 52 44.187z" id="DejaVuSans-6d"/></defs><g transform="matrix(.1 0 0 -.1 551.55 351.018)"><use xlink:href="#DejaVuSans-4e"/><use x="74.805" xlink:href="#DejaVuSans-6f"/><use x="135.986" xlink:href="#DejaVuSans-64"/><use x="199.463" xlink:href="#DejaVuSans-65"/><use x="260.986" xlink:href="#DejaVuSans-20"/><use x="292.773" xlink:href="#DejaVuSans-69"/><use x="320.557" xlink:href="#DejaVuSans-6d"/><use x="417.969" xlink:href="#DejaVuSans-6d"/></g></g></g></g><g id="matplotlib.axis_2"><g id="ytick_1"><g id="line2d_7"><defs><path d="M0 0h-3.5" id="mb1e1fdceb6" stroke="#000" stroke-width=".8"/></defs><use x="86.4" xlink:href="#mb1e1fdceb6" y="310.812" stroke="#000" stroke-width=".8"/></g><g id="text_7"><defs><path d="M31.781 66.406q-7.61 0-11.453-7.5Q16.5 51.422 16.5 36.375q0-14.984 3.828-22.484 3.844-7.5 11.453-7.5 7.672 0 11.5 7.5 3.844 7.5 3.844 22.484 0 15.047-3.844 22.531-3.828 7.5-11.5 7.5zm0 7.813q12.266 0 18.735-9.703 6.468-9.688 6.468-28.141 0-18.406-6.468-28.11-6.47-9.687-18.735-9.687-12.25 0-18.718 9.688-6.47 9.703-6.47 28.109 0 18.453 6.47 28.14Q19.53 74.22 31.78 74.22z" id="DejaVuSans-30"/></defs><use xlink:href="#DejaVuSans-30" transform="matrix(.1 0 0 -.1 73.037 314.611)"/></g></g><g id="ytick_2"><use x="86.4" xlink:href="#mb1e1fdceb6" y="273.989" stroke="#000" stroke-width=".8" id="line2d_8"/><g id="text_8"><defs><path d="M12.406 8.297h16.11v55.625l-17.532-3.516v8.985l17.438 3.515h9.86V8.296H54.39V0H12.406z" id="DejaVuSans-31"/></defs><g transform="matrix(.1 0 0 -.1 66.675 277.788)"><use xlink:href="#DejaVuSans-31"/><use x="63.623" xlink:href="#DejaVuSans-30"/></g></g></g><g id="ytick_3"><use x="86.4" xlink:href="#mb1e1fdceb6" y="237.167" stroke="#000" stroke-width=".8" id="line2d_9"/><g id="text_9"><defs><path d="M19.188 8.297h34.421V0H7.33v8.297q5.609 5.812 15.296 15.594 9.703 9.797 12.188 12.64 4.734 5.313 6.609 9 1.89 3.688 1.89 7.25 0 5.813-4.078 9.469-4.078 3.672-10.625 3.672-4.64 0-9.797-1.61-5.14-1.609-11-4.89v9.969Q13.767 71.78 18.938 73q5.188 1.219 9.485 1.219 11.328 0 18.062-5.672 6.735-5.656 6.735-15.125 0-4.5-1.688-8.531-1.672-4.016-6.125-9.485-1.218-1.422-7.765-8.187-6.532-6.766-18.453-18.922z" id="DejaVuSans-32"/></defs><g transform="matrix(.1 0 0 -.1 66.675 240.966)"><use xlink:href="#DejaVuSans-32"/><use x="63.623" xlink:href="#DejaVuSans-30"/></g></g></g><g id="ytick_4"><use x="86.4" xlink:href="#mb1e1fdceb6" y="200.344" stroke="#000" stroke-width=".8" id="line2d_10"/><g id="text_10"><defs><path d="M40.578 39.313Q47.656 37.797 51.625 33q3.984-4.781 3.984-11.813 0-10.78-7.422-16.703-7.421-5.906-21.093-5.906-4.578 0-9.438.906-4.86.907-10.031 2.72v9.515q4.094-2.39 8.969-3.61 4.89-1.218 10.218-1.218 9.266 0 14.125 3.656 4.86 3.656 4.86 10.64 0 6.454-4.516 10.079-4.515 3.64-12.562 3.64h-8.5v8.11h8.89q7.266 0 11.125 2.906 3.86 2.906 3.86 8.375 0 5.61-3.985 8.61-3.968 3.015-11.39 3.015-4.063 0-8.703-.89-4.641-.876-10.203-2.72v8.782q5.624 1.562 10.53 2.344 4.907.78 9.25.78 11.235 0 17.766-5.109 6.547-5.093 6.547-13.78 0-6.063-3.468-10.235-3.47-4.172-9.86-5.782z" id="DejaVuSans-33"/></defs><g transform="matrix(.1 0 0 -.1 66.675 204.143)"><use xlink:href="#DejaVuSans-33"/><use x="63.623" xlink:href="#DejaVuSans-30"/></g></g></g><g id="ytick_5"><use x="86.4" xlink:href="#mb1e1fdceb6" y="163.522" stroke="#000" stroke-width=".8" id="line2d_11"/><g id="text_11"><defs><path d="M37.797 64.313L12.89 25.39h24.906zm-2.594 8.593H47.61V25.391h10.407v-8.203H47.609V0h-9.812v17.188H4.89v9.515z" id="DejaVuSans-34"/></defs><g transform="matrix(.1 0 0 -.1 66.675 167.321)"><use xlink:href="#DejaVuSans-34"/><use x="63.623" xlink:href="#DejaVuSans-30"/></g></g></g><g id="ytick_6"><use x="86.4" xlink:href="#mb1e1fdceb6" y="126.699" stroke="#000" stroke-width=".8" id="line2d_12"/><g id="text_12"><defs><path d="M10.797 72.906h38.719v-8.312H19.828v-17.86q2.14.735 4.281 1.094 2.157.36 4.313.36 12.203 0 19.328-6.688 7.14-6.688 7.14-18.11 0-11.765-7.328-18.296-7.328-6.516-20.656-6.516-4.593 0-9.36.781-4.75.782-9.827 2.344v9.922q4.39-2.39 9.078-3.563 4.687-1.171 9.906-1.171 8.453 0 13.375 4.437 4.938 4.438 4.938 12.063 0 7.609-4.938 12.047-4.922 4.453-13.375 4.453-3.953 0-7.89-.875-3.922-.875-8.016-2.735z" id="DejaVuSans-35"/></defs><g transform="matrix(.1 0 0 -.1 66.675 130.498)"><use xlink:href="#DejaVuSans-35"/><use x="63.623" xlink:href="#DejaVuSans-30"/></g></g></g><g id="ytick_7"><use x="86.4" xlink:href="#mb1e1fdceb6" y="89.877" stroke="#000" stroke-width=".8" id="line2d_13"/><g id="text_13"><defs><path d="M33.016 40.375q-6.641 0-10.532-4.547-3.875-4.531-3.875-12.437 0-7.86 3.875-12.438 3.891-4.562 10.532-4.562 6.64 0 10.515 4.562 3.875 4.578 3.875 12.438 0 7.906-3.875 12.437-3.875 4.547-10.515 4.547zm19.578 30.922v-8.984q-3.719 1.75-7.5 2.671-3.782.938-7.5.938-9.766 0-14.922-6.594-5.14-6.594-5.875-19.922 2.875 4.25 7.219 6.516 4.359 2.266 9.578 2.266 10.984 0 17.36-6.672 6.374-6.657 6.374-18.125 0-11.235-6.64-18.032-6.641-6.78-17.672-6.78-12.657 0-19.344 9.687-6.688 9.703-6.688 28.109 0 17.281 8.204 27.563 8.203 10.28 22.015 10.28 3.719 0 7.5-.734t7.89-2.187z" id="DejaVuSans-36"/></defs><g transform="matrix(.1 0 0 -.1 66.675 93.676)"><use xlink:href="#DejaVuSans-36"/><use x="63.623" xlink:href="#DejaVuSans-30"/></g></g></g><g id="ytick_8"><use x="86.4" xlink:href="#mb1e1fdceb6" y="53.054" stroke="#000" stroke-width=".8" id="line2d_14"/><g id="text_14"><defs><path d="M8.203 72.906h46.875v-4.203L28.61 0H18.312L43.22 64.594H8.203z" id="DejaVuSans-37"/></defs><g transform="matrix(.1 0 0 -.1 66.675 56.853)"><use xlink:href="#DejaVuSans-37"/><use x="63.623" xlink:href="#DejaVuSans-30"/></g></g></g></g><path clip-path="url(#p240f4f1a70)" d="M107.336 302.995h44.76v-22.48h-44.76v22.48" fill="none" stroke="#000" stroke-linecap="square" id="line2d_15"/><path clip-path="url(#p240f4f1a70)" d="M129.716 302.995v6.966" fill="none" stroke="#000" stroke-linecap="square" id="line2d_16"/><path clip-path="url(#p240f4f1a70)" d="M129.716 280.515v-32.43" fill="none" stroke="#000" stroke-linecap="square" id="line2d_17"/><path clip-path="url(#p240f4f1a70)" d="M118.526 309.961h22.38" fill="none" stroke="#000" stroke-linecap="square" id="line2d_18"/><path clip-path="url(#p240f4f1a70)" d="M118.526 248.085h22.38" fill="none" stroke="#000" stroke-linecap="square" id="line2d_19"/><g id="line2d_20"><defs><path d="M0 3a3 3 0 1 0 0-6 3 3 0 0 0 0 6z" id="m9cd8d150eb" stroke="#000"/></defs><g clip-path="url(#p240f4f1a70)" fill="none" stroke="#000"><use x="129.716" xlink:href="#m9cd8d150eb" y="12.351"/><use x="129.716" xlink:href="#m9cd8d150eb" y="170.651"/><use x="129.716" xlink:href="#m9cd8d150eb" y="229.589"/><use x="129.716" xlink:href="#m9cd8d150eb" y="-1"/><use x="129.716" xlink:href="#m9cd8d150eb" y="-1"/><use x="129.716" xlink:href="#m9cd8d150eb" y="244.288"/><use x="129.716" xlink:href="#m9cd8d150eb" y="211.203"/><use x="129.716" xlink:href="#m9cd8d150eb" y="225.932"/><use x="129.716" xlink:href="#m9cd8d150eb" y="242.3"/><use x="129.716" xlink:href="#m9cd8d150eb" y="240.709"/><use x="129.716" xlink:href="#m9cd8d150eb" y="159.633"/><use x="129.716" xlink:href="#m9cd8d150eb" y="214.793"/><use x="129.716" xlink:href="#m9cd8d150eb" y="240.573"/><use x="129.716" xlink:href="#m9cd8d150eb" y="97.039"/></g></g><path clip-path="url(#p240f4f1a70)" d="M196.857 306.594h44.76v-25.94h-44.76v25.94" fill="none" stroke="#000" stroke-linecap="square" id="line2d_21"/><path clip-path="url(#p240f4f1a70)" d="M219.237 306.594v3.839" fill="none" stroke="#000" stroke-linecap="square" id="line2d_22"/><path clip-path="url(#p240f4f1a70)" d="M219.237 280.654v-38.34" fill="none" stroke="#000" stroke-linecap="square" id="line2d_23"/><path clip-path="url(#p240f4f1a70)" d="M208.047 310.433h22.38" fill="none" stroke="#000" stroke-linecap="square" id="line2d_24"/><path clip-path="url(#p240f4f1a70)" d="M208.047 242.315h22.38" fill="none" stroke="#000" stroke-linecap="square" id="line2d_25"/><g clip-path="url(#p240f4f1a70)" fill="none" stroke="#000" id="line2d_26"><use x="219.237" xlink:href="#m9cd8d150eb" y="229.548"/><use x="219.237" xlink:href="#m9cd8d150eb" y="231.091"/><use x="219.237" xlink:href="#m9cd8d150eb" y="227.446"/><use x="219.237" xlink:href="#m9cd8d150eb" y="225.951"/><use x="219.237" xlink:href="#m9cd8d150eb" y="223.432"/><use x="219.237" xlink:href="#m9cd8d150eb" y="230.307"/><use x="219.237" xlink:href="#m9cd8d150eb" y="226.919"/><use x="219.237" xlink:href="#m9cd8d150eb" y="223.557"/><use x="219.237" xlink:href="#m9cd8d150eb" y="225.814"/><use x="219.237" xlink:href="#m9cd8d150eb" y="232.752"/><use x="219.237" xlink:href="#m9cd8d150eb" y="234.339"/><use x="219.237" xlink:href="#m9cd8d150eb" y="229.283"/><use x="219.237" xlink:href="#m9cd8d150eb" y="235.267"/><use x="219.237" xlink:href="#m9cd8d150eb" y="233.311"/><use x="219.237" xlink:href="#m9cd8d150eb" y="226.271"/><use x="219.237" xlink:href="#m9cd8d150eb" y="224.106"/><use x="219.237" xlink:href="#m9cd8d150eb" y="227.066"/><use x="219.237" xlink:href="#m9cd8d150eb" y="240.002"/><use x="219.237" xlink:href="#m9cd8d150eb" y="230.763"/><use x="219.237" xlink:href="#m9cd8d150eb" y="224.853"/><use x="219.237" xlink:href="#m9cd8d150eb" y="234.346"/><use x="219.237" xlink:href="#m9cd8d150eb" y="227.103"/><use x="219.237" xlink:href="#m9cd8d150eb" y="223.06"/><use x="219.237" xlink:href="#m9cd8d150eb" y="227.998"/><use x="219.237" xlink:href="#m9cd8d150eb" y="231.695"/></g><path clip-path="url(#p240f4f1a70)" d="M286.378 283.563h44.76v-118.2h-44.76v118.2" fill="none" stroke="#000" stroke-linecap="square" id="line2d_27"/><path clip-path="url(#p240f4f1a70)" d="M308.758 283.563v24.671" fill="none" stroke="#000" stroke-linecap="square" id="line2d_28"/><path clip-path="url(#p240f4f1a70)" d="M308.758 165.363V77.725" fill="none" stroke="#000" stroke-linecap="square" id="line2d_29"/><path clip-path="url(#p240f4f1a70)" d="M297.568 308.234h22.38" fill="none" stroke="#000" stroke-linecap="square" id="line2d_30"/><path clip-path="url(#p240f4f1a70)" d="M297.568 77.725h22.38" fill="none" stroke="#000" stroke-linecap="square" id="line2d_31"/><path clip-path="url(#p240f4f1a70)" d="M375.898 294.377h44.76v-58.213h-44.76v58.213" fill="none" stroke="#000" stroke-linecap="square" id="line2d_33"/><path clip-path="url(#p240f4f1a70)" d="M398.278 294.377v14.932" fill="none" stroke="#000" stroke-linecap="square" id="line2d_34"/><path clip-path="url(#p240f4f1a70)" d="M398.278 236.164v-66.073" fill="none" stroke="#000" stroke-linecap="square" id="line2d_35"/><path clip-path="url(#p240f4f1a70)" d="M387.088 309.31h22.38" fill="none" stroke="#000" stroke-linecap="square" id="line2d_36"/><path clip-path="url(#p240f4f1a70)" d="M387.088 170.09h22.38" fill="none" stroke="#000" stroke-linecap="square" id="line2d_37"/><path clip-path="url(#p240f4f1a70)" d="M465.419 299.765h44.76V189.298h-44.76v110.467" fill="none" stroke="#000" stroke-linecap="square" id="line2d_39"/><path clip-path="url(#p240f4f1a70)" d="M487.799 299.765v7.365" fill="none" stroke="#000" stroke-linecap="square" id="line2d_40"/><path clip-path="url(#p240f4f1a70)" d="M487.799 189.298V64.1" fill="none" stroke="#000" stroke-linecap="square" id="line2d_41"/><path clip-path="url(#p240f4f1a70)" d="M476.609 307.13h22.38" fill="none" stroke="#000" stroke-linecap="square" id="line2d_42"/><path clip-path="url(#p240f4f1a70)" d="M476.609 64.101h22.38" fill="none" stroke="#000" stroke-linecap="square" id="line2d_43"/><path clip-path="url(#p240f4f1a70)" d="M554.94 291.664h44.76v-4.419h-44.76v4.42" fill="none" stroke="#000" stroke-linecap="square" id="line2d_45"/><path clip-path="url(#p240f4f1a70)" d="M577.32 291.664v5.892" fill="none" stroke="#000" stroke-linecap="square" id="line2d_46"/><path clip-path="url(#p240f4f1a70)" d="M577.32 287.245v-6.628" fill="none" stroke="#000" stroke-linecap="square" id="line2d_47"/><path clip-path="url(#p240f4f1a70)" d="M566.13 297.556h22.38" fill="none" stroke="#000" stroke-linecap="square" id="line2d_48"/><path clip-path="url(#p240f4f1a70)" d="M566.13 280.617h22.38" fill="none" stroke="#000" stroke-linecap="square" id="line2d_49"/><g clip-path="url(#p240f4f1a70)" fill="none" stroke="#000" id="line2d_50"><use x="577.32" xlink:href="#m9cd8d150eb" y="307.13"/><use x="577.32" xlink:href="#m9cd8d150eb" y="305.657"/><use x="577.32" xlink:href="#m9cd8d150eb" y="308.971"/><use x="577.32" xlink:href="#m9cd8d150eb" y="307.498"/><use x="577.32" xlink:href="#m9cd8d150eb" y="305.657"/><use x="577.32" xlink:href="#m9cd8d150eb" y="305.657"/><use x="577.32" xlink:href="#m9cd8d150eb" y="304.184"/><use x="577.32" xlink:href="#m9cd8d150eb" y="300.87"/><use x="577.32" xlink:href="#m9cd8d150eb" y="300.133"/><use x="577.32" xlink:href="#m9cd8d150eb" y="300.501"/><use x="577.32" xlink:href="#m9cd8d150eb" y="306.025"/><use x="577.32" xlink:href="#m9cd8d150eb" y="307.866"/><use x="577.32" xlink:href="#m9cd8d150eb" y="307.498"/><use x="577.32" xlink:href="#m9cd8d150eb" y="308.971"/><use x="577.32" xlink:href="#m9cd8d150eb" y="307.498"/><use x="577.32" xlink:href="#m9cd8d150eb" y="306.025"/><use x="577.32" xlink:href="#m9cd8d150eb" y="305.288"/><use x="577.32" xlink:href="#m9cd8d150eb" y="302.711"/><use x="577.32" xlink:href="#m9cd8d150eb" y="301.606"/><use x="577.32" xlink:href="#m9cd8d150eb" y="301.606"/><use x="577.32" xlink:href="#m9cd8d150eb" y="300.87"/><use x="577.32" xlink:href="#m9cd8d150eb" y="302.343"/><use x="577.32" xlink:href="#m9cd8d150eb" y="307.866"/><use x="577.32" xlink:href="#m9cd8d150eb" y="307.498"/><use x="577.32" xlink:href="#m9cd8d150eb" y="308.971"/><use x="577.32" xlink:href="#m9cd8d150eb" y="307.13"/><use x="577.32" xlink:href="#m9cd8d150eb" y="306.025"/><use x="577.32" xlink:href="#m9cd8d150eb" y="305.288"/><use x="577.32" xlink:href="#m9cd8d150eb" y="302.343"/><use x="577.32" xlink:href="#m9cd8d150eb" y="302.711"/><use x="577.32" xlink:href="#m9cd8d150eb" y="300.133"/><use x="577.32" xlink:href="#m9cd8d150eb" y="299.765"/><use x="577.32" xlink:href="#m9cd8d150eb" y="299.765"/><use x="577.32" xlink:href="#m9cd8d150eb" y="305.288"/><use x="577.32" xlink:href="#m9cd8d150eb" y="307.13"/><use x="577.32" xlink:href="#m9cd8d150eb" y="308.971"/><use x="577.32" xlink:href="#m9cd8d150eb" y="307.866"/><use x="577.32" xlink:href="#m9cd8d150eb" y="306.025"/><use x="577.32" xlink:href="#m9cd8d150eb" y="304.92"/><use x="577.32" xlink:href="#m9cd8d150eb" y="303.079"/><use x="577.32" xlink:href="#m9cd8d150eb" y="300.87"/><use x="577.32" xlink:href="#m9cd8d150eb" y="302.343"/><use x="577.32" xlink:href="#m9cd8d150eb" y="300.501"/><use x="577.32" xlink:href="#m9cd8d150eb" y="302.343"/><use x="577.32" xlink:href="#m9cd8d150eb" y="307.866"/><use x="577.32" xlink:href="#m9cd8d150eb" y="307.498"/><use x="577.32" xlink:href="#m9cd8d150eb" y="308.971"/><use x="577.32" xlink:href="#m9cd8d150eb" y="307.866"/><use x="577.32" xlink:href="#m9cd8d150eb" y="305.288"/><use x="577.32" xlink:href="#m9cd8d150eb" y="305.288"/><use x="577.32" xlink:href="#m9cd8d150eb" y="302.343"/><use x="577.32" xlink:href="#m9cd8d150eb" y="301.974"/><use x="577.32" xlink:href="#m9cd8d150eb" y="301.238"/><use x="577.32" xlink:href="#m9cd8d150eb" y="299.765"/><use x="577.32" xlink:href="#m9cd8d150eb" y="304.184"/><use x="577.32" xlink:href="#m9cd8d150eb" y="308.234"/><use x="577.32" xlink:href="#m9cd8d150eb" y="307.866"/><use x="577.32" xlink:href="#m9cd8d150eb" y="308.971"/><use x="577.32" xlink:href="#m9cd8d150eb" y="307.498"/><use x="577.32" xlink:href="#m9cd8d150eb" y="304.92"/><use x="577.32" xlink:href="#m9cd8d150eb" y="305.288"/><use x="577.32" xlink:href="#m9cd8d150eb" y="301.606"/><use x="577.32" xlink:href="#m9cd8d150eb" y="300.87"/><use x="577.32" xlink:href="#m9cd8d150eb" y="301.606"/><use x="577.32" xlink:href="#m9cd8d150eb" y="299.765"/><use x="577.32" xlink:href="#m9cd8d150eb" y="308.234"/><use x="577.32" xlink:href="#m9cd8d150eb" y="307.498"/><use x="577.32" xlink:href="#m9cd8d150eb" y="308.234"/><use x="577.32" xlink:href="#m9cd8d150eb" y="307.498"/><use x="577.32" xlink:href="#m9cd8d150eb" y="306.025"/><use x="577.32" xlink:href="#m9cd8d150eb" y="305.288"/><use x="577.32" xlink:href="#m9cd8d150eb" y="301.606"/><use x="577.32" xlink:href="#m9cd8d150eb" y="299.765"/><use x="577.32" xlink:href="#m9cd8d150eb" y="301.238"/><use x="577.32" xlink:href="#m9cd8d150eb" y="301.606"/><use x="577.32" xlink:href="#m9cd8d150eb" y="300.133"/><use x="577.32" xlink:href="#m9cd8d150eb" y="307.866"/><use x="577.32" xlink:href="#m9cd8d150eb" y="307.498"/><use x="577.32" xlink:href="#m9cd8d150eb" y="308.971"/><use x="577.32" xlink:href="#m9cd8d150eb" y="307.498"/><use x="577.32" xlink:href="#m9cd8d150eb" y="306.025"/><use x="577.32" xlink:href="#m9cd8d150eb" y="306.025"/><use x="577.32" xlink:href="#m9cd8d150eb" y="304.184"/><use x="577.32" xlink:href="#m9cd8d150eb" y="302.711"/><use x="577.32" xlink:href="#m9cd8d150eb" y="301.238"/><use x="577.32" xlink:href="#m9cd8d150eb" y="300.87"/><use x="577.32" xlink:href="#m9cd8d150eb" y="303.447"/><use x="577.32" xlink:href="#m9cd8d150eb" y="308.234"/><use x="577.32" xlink:href="#m9cd8d150eb" y="307.866"/><use x="577.32" xlink:href="#m9cd8d150eb" y="308.971"/><use x="577.32" xlink:href="#m9cd8d150eb" y="307.13"/><use x="577.32" xlink:href="#m9cd8d150eb" y="305.288"/><use x="577.32" xlink:href="#m9cd8d150eb" y="305.657"/><use x="577.32" xlink:href="#m9cd8d150eb" y="302.711"/><use x="577.32" xlink:href="#m9cd8d150eb" y="300.87"/><use x="577.32" xlink:href="#m9cd8d150eb" y="302.343"/><use x="577.32" xlink:href="#m9cd8d150eb" y="301.606"/><use x="577.32" xlink:href="#m9cd8d150eb" y="303.447"/><use x="577.32" xlink:href="#m9cd8d150eb" y="307.866"/><use x="577.32" xlink:href="#m9cd8d150eb" y="307.498"/><use x="577.32" xlink:href="#m9cd8d150eb" y="308.602"/><use x="577.32" xlink:href="#m9cd8d150eb" y="307.498"/><use x="577.32" xlink:href="#m9cd8d150eb" y="304.92"/><use x="577.32" xlink:href="#m9cd8d150eb" y="304.92"/><use x="577.32" xlink:href="#m9cd8d150eb" y="301.974"/><use x="577.32" xlink:href="#m9cd8d150eb" y="300.133"/><use x="577.32" xlink:href="#m9cd8d150eb" y="300.87"/><use x="577.32" xlink:href="#m9cd8d150eb" y="300.133"/><use x="577.32" xlink:href="#m9cd8d150eb" y="302.343"/><use x="577.32" xlink:href="#m9cd8d150eb" y="277.672"/><use x="577.32" xlink:href="#m9cd8d150eb" y="274.726"/><use x="577.32" xlink:href="#m9cd8d150eb" y="279.144"/><use x="577.32" xlink:href="#m9cd8d150eb" y="274.726"/><use x="577.32" xlink:href="#m9cd8d150eb" y="276.935"/><use x="577.32" xlink:href="#m9cd8d150eb" y="277.672"/><use x="577.32" xlink:href="#m9cd8d150eb" y="273.253"/><use x="577.32" xlink:href="#m9cd8d150eb" y="271.78"/><use x="577.32" xlink:href="#m9cd8d150eb" y="270.307"/><use x="577.32" xlink:href="#m9cd8d150eb" y="267.729"/><use x="577.32" xlink:href="#m9cd8d150eb" y="279.513"/><use x="577.32" xlink:href="#m9cd8d150eb" y="275.462"/><use x="577.32" xlink:href="#m9cd8d150eb" y="278.04"/><use x="577.32" xlink:href="#m9cd8d150eb" y="273.989"/><use x="577.32" xlink:href="#m9cd8d150eb" y="261.838"/><use x="577.32" xlink:href="#m9cd8d150eb" y="263.311"/><use x="577.32" xlink:href="#m9cd8d150eb" y="262.574"/><use x="577.32" xlink:href="#m9cd8d150eb" y="278.408"/><use x="577.32" xlink:href="#m9cd8d150eb" y="274.357"/><use x="577.32" xlink:href="#m9cd8d150eb" y="264.415"/><use x="577.32" xlink:href="#m9cd8d150eb" y="272.148"/><use x="577.32" xlink:href="#m9cd8d150eb" y="262.574"/><use x="577.32" xlink:href="#m9cd8d150eb" y="275.094"/><use x="577.32" xlink:href="#m9cd8d150eb" y="278.408"/><use x="577.32" xlink:href="#m9cd8d150eb" y="274.357"/><use x="577.32" xlink:href="#m9cd8d150eb" y="277.672"/><use x="577.32" xlink:href="#m9cd8d150eb" y="277.303"/><use x="577.32" xlink:href="#m9cd8d150eb" y="280.249"/><use x="577.32" xlink:href="#m9cd8d150eb" y="274.357"/><use x="577.32" xlink:href="#m9cd8d150eb" y="276.567"/><use x="577.32" xlink:href="#m9cd8d150eb" y="277.672"/><use x="577.32" xlink:href="#m9cd8d150eb" y="278.776"/><use x="577.32" xlink:href="#m9cd8d150eb" y="278.408"/><use x="577.32" xlink:href="#m9cd8d150eb" y="277.303"/><use x="577.32" xlink:href="#m9cd8d150eb" y="276.567"/><use x="577.32" xlink:href="#m9cd8d150eb" y="259.997"/><use x="577.32" xlink:href="#m9cd8d150eb" y="254.473"/><use x="577.32" xlink:href="#m9cd8d150eb" y="276.935"/><use x="577.32" xlink:href="#m9cd8d150eb" y="266.993"/><use x="577.32" xlink:href="#m9cd8d150eb" y="257.051"/><use x="577.32" xlink:href="#m9cd8d150eb" y="261.101"/><use x="577.32" xlink:href="#m9cd8d150eb" y="273.253"/><use x="577.32" xlink:href="#m9cd8d150eb" y="254.842"/><use x="577.32" xlink:href="#m9cd8d150eb" y="279.144"/><use x="577.32" xlink:href="#m9cd8d150eb" y="271.043"/><use x="577.32" xlink:href="#m9cd8d150eb" y="279.144"/><use x="577.32" xlink:href="#m9cd8d150eb" y="258.156"/><use x="577.32" xlink:href="#m9cd8d150eb" y="278.408"/><use x="577.32" xlink:href="#m9cd8d150eb" y="272.516"/><use x="577.32" xlink:href="#m9cd8d150eb" y="277.672"/><use x="577.32" xlink:href="#m9cd8d150eb" y="276.935"/><use x="577.32" xlink:href="#m9cd8d150eb" y="279.513"/><use x="577.32" xlink:href="#m9cd8d150eb" y="276.935"/><use x="577.32" xlink:href="#m9cd8d150eb" y="273.989"/><use x="577.32" xlink:href="#m9cd8d150eb" y="274.357"/><use x="577.32" xlink:href="#m9cd8d150eb" y="275.462"/><use x="577.32" xlink:href="#m9cd8d150eb" y="278.408"/><use x="577.32" xlink:href="#m9cd8d150eb" y="279.513"/><use x="577.32" xlink:href="#m9cd8d150eb" y="273.253"/><use x="577.32" xlink:href="#m9cd8d150eb" y="272.148"/><use x="577.32" xlink:href="#m9cd8d150eb" y="273.253"/><use x="577.32" xlink:href="#m9cd8d150eb" y="241.585"/><use x="577.32" xlink:href="#m9cd8d150eb" y="257.787"/><use x="577.32" xlink:href="#m9cd8d150eb" y="270.307"/><use x="577.32" xlink:href="#m9cd8d150eb" y="262.943"/><use x="577.32" xlink:href="#m9cd8d150eb" y="279.513"/><use x="577.32" xlink:href="#m9cd8d150eb" y="279.881"/><use x="577.32" xlink:href="#m9cd8d150eb" y="278.776"/><use x="577.32" xlink:href="#m9cd8d150eb" y="269.939"/><use x="577.32" xlink:href="#m9cd8d150eb" y="272.516"/><use x="577.32" xlink:href="#m9cd8d150eb" y="262.206"/><use x="577.32" xlink:href="#m9cd8d150eb" y="277.672"/><use x="577.32" xlink:href="#m9cd8d150eb" y="272.885"/><use x="577.32" xlink:href="#m9cd8d150eb" y="278.04"/><use x="577.32" xlink:href="#m9cd8d150eb" y="276.567"/><use x="577.32" xlink:href="#m9cd8d150eb" y="277.303"/><use x="577.32" xlink:href="#m9cd8d150eb" y="274.357"/><use x="577.32" xlink:href="#m9cd8d150eb" y="274.726"/><use x="577.32" xlink:href="#m9cd8d150eb" y="273.253"/><use x="577.32" xlink:href="#m9cd8d150eb" y="271.043"/><use x="577.32" xlink:href="#m9cd8d150eb" y="277.672"/><use x="577.32" xlink:href="#m9cd8d150eb" y="279.513"/><use x="577.32" xlink:href="#m9cd8d150eb" y="268.466"/><use x="577.32" xlink:href="#m9cd8d150eb" y="269.939"/><use x="577.32" xlink:href="#m9cd8d150eb" y="266.257"/><use x="577.32" xlink:href="#m9cd8d150eb" y="267.361"/><use x="577.32" xlink:href="#m9cd8d150eb" y="268.098"/><use x="577.32" xlink:href="#m9cd8d150eb" y="263.679"/><use x="577.32" xlink:href="#m9cd8d150eb" y="268.834"/><use x="577.32" xlink:href="#m9cd8d150eb" y="268.834"/><use x="577.32" xlink:href="#m9cd8d150eb" y="270.675"/><use x="577.32" xlink:href="#m9cd8d150eb" y="274.726"/><use x="577.32" xlink:href="#m9cd8d150eb" y="272.516"/><use x="577.32" xlink:href="#m9cd8d150eb" y="278.776"/><use x="577.32" xlink:href="#m9cd8d150eb" y="254.842"/><use x="577.32" xlink:href="#m9cd8d150eb" y="277.672"/><use x="577.32" xlink:href="#m9cd8d150eb" y="279.513"/><use x="577.32" xlink:href="#m9cd8d150eb" y="274.726"/><use x="577.32" xlink:href="#m9cd8d150eb" y="277.672"/><use x="577.32" xlink:href="#m9cd8d150eb" y="276.935"/><use x="577.32" xlink:href="#m9cd8d150eb" y="272.148"/><use x="577.32" xlink:href="#m9cd8d150eb" y="272.148"/><use x="577.32" xlink:href="#m9cd8d150eb" y="271.043"/><use x="577.32" xlink:href="#m9cd8d150eb" y="271.043"/><use x="577.32" xlink:href="#m9cd8d150eb" y="276.199"/><use x="577.32" xlink:href="#m9cd8d150eb" y="279.513"/><use x="577.32" xlink:href="#m9cd8d150eb" y="274.357"/><use x="577.32" xlink:href="#m9cd8d150eb" y="255.578"/><use x="577.32" xlink:href="#m9cd8d150eb" y="280.249"/><use x="577.32" xlink:href="#m9cd8d150eb" y="255.946"/><use x="577.32" xlink:href="#m9cd8d150eb" y="254.473"/><use x="577.32" xlink:href="#m9cd8d150eb" y="261.101"/><use x="577.32" xlink:href="#m9cd8d150eb" y="263.679"/><use x="577.32" xlink:href="#m9cd8d150eb" y="279.144"/><use x="577.32" xlink:href="#m9cd8d150eb" y="276.199"/><use x="577.32" xlink:href="#m9cd8d150eb" y="269.939"/><use x="577.32" xlink:href="#m9cd8d150eb" y="277.672"/><use x="577.32" xlink:href="#m9cd8d150eb" y="265.888"/><use x="577.32" xlink:href="#m9cd8d150eb" y="280.249"/><use x="577.32" xlink:href="#m9cd8d150eb" y="269.571"/><use x="577.32" xlink:href="#m9cd8d150eb" y="273.621"/><use x="577.32" xlink:href="#m9cd8d150eb" y="277.672"/><use x="577.32" xlink:href="#m9cd8d150eb" y="273.989"/><use x="577.32" xlink:href="#m9cd8d150eb" y="275.462"/><use x="577.32" xlink:href="#m9cd8d150eb" y="272.516"/><use x="577.32" xlink:href="#m9cd8d150eb" y="269.571"/><use x="577.32" xlink:href="#m9cd8d150eb" y="272.516"/><use x="577.32" xlink:href="#m9cd8d150eb" y="278.04"/><use x="577.32" xlink:href="#m9cd8d150eb" y="272.516"/><use x="577.32" xlink:href="#m9cd8d150eb" y="273.989"/><use x="577.32" xlink:href="#m9cd8d150eb" y="258.524"/><use x="577.32" xlink:href="#m9cd8d150eb" y="250.791"/><use x="577.32" xlink:href="#m9cd8d150eb" y="264.784"/><use x="577.32" xlink:href="#m9cd8d150eb" y="259.628"/><use x="577.32" xlink:href="#m9cd8d150eb" y="268.834"/><use x="577.32" xlink:href="#m9cd8d150eb" y="273.253"/><use x="577.32" xlink:href="#m9cd8d150eb" y="278.776"/><use x="577.32" xlink:href="#m9cd8d150eb" y="272.516"/><use x="577.32" xlink:href="#m9cd8d150eb" y="269.571"/><use x="577.32" xlink:href="#m9cd8d150eb" y="268.466"/><use x="577.32" xlink:href="#m9cd8d150eb" y="275.094"/><use x="577.32" xlink:href="#m9cd8d150eb" y="278.408"/><use x="577.32" xlink:href="#m9cd8d150eb" y="276.935"/><use x="577.32" xlink:href="#m9cd8d150eb" y="275.83"/><use x="577.32" xlink:href="#m9cd8d150eb" y="276.567"/><use x="577.32" xlink:href="#m9cd8d150eb" y="273.621"/><use x="577.32" xlink:href="#m9cd8d150eb" y="271.043"/><use x="577.32" xlink:href="#m9cd8d150eb" y="275.83"/><use x="577.32" xlink:href="#m9cd8d150eb" y="278.776"/><use x="577.32" xlink:href="#m9cd8d150eb" y="278.776"/><use x="577.32" xlink:href="#m9cd8d150eb" y="272.516"/><use x="577.32" xlink:href="#m9cd8d150eb" y="271.412"/><use x="577.32" xlink:href="#m9cd8d150eb" y="257.787"/><use x="577.32" xlink:href="#m9cd8d150eb" y="253.737"/><use x="577.32" xlink:href="#m9cd8d150eb" y="276.199"/><use x="577.32" xlink:href="#m9cd8d150eb" y="250.423"/><use x="577.32" xlink:href="#m9cd8d150eb" y="273.253"/><use x="577.32" xlink:href="#m9cd8d150eb" y="267.729"/><use x="577.32" xlink:href="#m9cd8d150eb" y="276.935"/><use x="577.32" xlink:href="#m9cd8d150eb" y="268.098"/><use x="577.32" xlink:href="#m9cd8d150eb" y="268.466"/><use x="577.32" xlink:href="#m9cd8d150eb" y="278.776"/><use x="577.32" xlink:href="#m9cd8d150eb" y="267.361"/><use x="577.32" xlink:href="#m9cd8d150eb" y="279.881"/><use x="577.32" xlink:href="#m9cd8d150eb" y="279.513"/><use x="577.32" xlink:href="#m9cd8d150eb" y="278.776"/><use x="577.32" xlink:href="#m9cd8d150eb" y="276.935"/><use x="577.32" xlink:href="#m9cd8d150eb" y="275.462"/><use x="577.32" xlink:href="#m9cd8d150eb" y="278.04"/><use x="577.32" xlink:href="#m9cd8d150eb" y="273.253"/><use x="577.32" xlink:href="#m9cd8d150eb" y="271.412"/><use x="577.32" xlink:href="#m9cd8d150eb" y="279.513"/><use x="577.32" xlink:href="#m9cd8d150eb" y="278.04"/><use x="577.32" xlink:href="#m9cd8d150eb" y="276.567"/><use x="577.32" xlink:href="#m9cd8d150eb" y="277.303"/><use x="577.32" xlink:href="#m9cd8d150eb" y="272.148"/><use x="577.32" xlink:href="#m9cd8d150eb" y="255.21"/><use x="577.32" xlink:href="#m9cd8d150eb" y="253.369"/><use x="577.32" xlink:href="#m9cd8d150eb" y="262.943"/><use x="577.32" xlink:href="#m9cd8d150eb" y="262.943"/><use x="577.32" xlink:href="#m9cd8d150eb" y="258.156"/><use x="577.32" xlink:href="#m9cd8d150eb" y="275.462"/><use x="577.32" xlink:href="#m9cd8d150eb" y="266.625"/><use x="577.32" xlink:href="#m9cd8d150eb" y="260.733"/><use x="577.32" xlink:href="#m9cd8d150eb" y="262.206"/><use x="577.32" xlink:href="#m9cd8d150eb" y="278.776"/><use x="577.32" xlink:href="#m9cd8d150eb" y="278.04"/><use x="577.32" xlink:href="#m9cd8d150eb" y="276.935"/><use x="577.32" xlink:href="#m9cd8d150eb" y="273.253"/><use x="577.32" xlink:href="#m9cd8d150eb" y="277.672"/><use x="577.32" xlink:href="#m9cd8d150eb" y="279.881"/><use x="577.32" xlink:href="#m9cd8d150eb" y="277.672"/><use x="577.32" xlink:href="#m9cd8d150eb" y="272.148"/><use x="577.32" xlink:href="#m9cd8d150eb" y="271.043"/><use x="577.32" xlink:href="#m9cd8d150eb" y="275.83"/><use x="577.32" xlink:href="#m9cd8d150eb" y="271.043"/><use x="577.32" xlink:href="#m9cd8d150eb" y="269.939"/><use x="577.32" xlink:href="#m9cd8d150eb" y="268.834"/><use x="577.32" xlink:href="#m9cd8d150eb" y="257.051"/><use x="577.32" xlink:href="#m9cd8d150eb" y="266.993"/><use x="577.32" xlink:href="#m9cd8d150eb" y="269.939"/><use x="577.32" xlink:href="#m9cd8d150eb" y="262.206"/><use x="577.32" xlink:href="#m9cd8d150eb" y="280.249"/><use x="577.32" xlink:href="#m9cd8d150eb" y="262.574"/><use x="577.32" xlink:href="#m9cd8d150eb" y="279.144"/><use x="577.32" xlink:href="#m9cd8d150eb" y="259.26"/><use x="577.32" xlink:href="#m9cd8d150eb" y="278.776"/><use x="577.32" xlink:href="#m9cd8d150eb" y="260.365"/><use x="577.32" xlink:href="#m9cd8d150eb" y="274.357"/><use x="577.32" xlink:href="#m9cd8d150eb" y="276.567"/><use x="577.32" xlink:href="#m9cd8d150eb" y="270.675"/><use x="577.32" xlink:href="#m9cd8d150eb" y="277.672"/><use x="577.32" xlink:href="#m9cd8d150eb" y="276.935"/><use x="577.32" xlink:href="#m9cd8d150eb" y="276.199"/><use x="577.32" xlink:href="#m9cd8d150eb" y="277.672"/><use x="577.32" xlink:href="#m9cd8d150eb" y="273.621"/><use x="577.32" xlink:href="#m9cd8d150eb" y="276.935"/><use x="577.32" xlink:href="#m9cd8d150eb" y="273.989"/><use x="577.32" xlink:href="#m9cd8d150eb" y="276.567"/><use x="577.32" xlink:href="#m9cd8d150eb" y="273.621"/><use x="577.32" xlink:href="#m9cd8d150eb" y="275.83"/><use x="577.32" xlink:href="#m9cd8d150eb" y="258.892"/><use x="577.32" xlink:href="#m9cd8d150eb" y="266.257"/><use x="577.32" xlink:href="#m9cd8d150eb" y="251.528"/><use x="577.32" xlink:href="#m9cd8d150eb" y="257.787"/><use x="577.32" xlink:href="#m9cd8d150eb" y="278.776"/><use x="577.32" xlink:href="#m9cd8d150eb" y="279.144"/><use x="577.32" xlink:href="#m9cd8d150eb" y="276.567"/><use x="577.32" xlink:href="#m9cd8d150eb" y="269.202"/></g><path clip-path="url(#p240f4f1a70)" d="M107.336 295.013h44.76" fill="none" stroke="#ff7f0e" stroke-linecap="square" id="line2d_51"/><g id="line2d_52"><defs><path d="M0-3l-3 6h6z" id="mbc6b2c2a76" stroke="#2ca02c"/></defs><g clip-path="url(#p240f4f1a70)"><use x="129.716" xlink:href="#mbc6b2c2a76" y="278.274" fill="#2ca02c" stroke="#2ca02c"/></g></g><path clip-path="url(#p240f4f1a70)" d="M196.857 300.115h44.76" fill="none" stroke="#ff7f0e" stroke-linecap="square" id="line2d_53"/><g clip-path="url(#p240f4f1a70)" id="line2d_54"><use x="219.237" xlink:href="#mbc6b2c2a76" y="292.284" fill="#2ca02c" stroke="#2ca02c"/></g><path clip-path="url(#p240f4f1a70)" d="M286.378 187.088h44.76" fill="none" stroke="#ff7f0e" stroke-linecap="square" id="line2d_55"/><g clip-path="url(#p240f4f1a70)" id="line2d_56"><use x="308.758" xlink:href="#mbc6b2c2a76" y="198.287" fill="#2ca02c" stroke="#2ca02c"/></g><path clip-path="url(#p240f4f1a70)" d="M375.898 256.482h44.76" fill="none" stroke="#ff7f0e" stroke-linecap="square" id="line2d_57"/><g clip-path="url(#p240f4f1a70)" id="line2d_58"><use x="398.278" xlink:href="#mbc6b2c2a76" y="259.303" fill="#2ca02c" stroke="#2ca02c"/></g><path clip-path="url(#p240f4f1a70)" d="M465.419 226.12h44.76" fill="none" stroke="#ff7f0e" stroke-linecap="square" id="line2d_59"/><g clip-path="url(#p240f4f1a70)" id="line2d_60"><use x="487.799" xlink:href="#mbc6b2c2a76" y="231.295" fill="#2ca02c" stroke="#2ca02c"/></g><path clip-path="url(#p240f4f1a70)" d="M554.94 289.823h44.76" fill="none" stroke="#ff7f0e" stroke-linecap="square" id="line2d_61"/><g clip-path="url(#p240f4f1a70)" id="line2d_62"><use x="577.32" xlink:href="#mbc6b2c2a76" y="288.537" fill="#2ca02c" stroke="#2ca02c"/></g><path d="M86.4 336.42V45.36" fill="none" stroke="#000" stroke-linecap="square" stroke-width=".8" id="patch_3"/><path d="M622.08 336.42V45.36" fill="none" stroke="#000" stroke-linecap="square" stroke-width=".8" id="patch_4"/><path d="M86.4 336.42h535.68" fill="none" stroke="#000" stroke-linecap="square" stroke-width=".8" id="patch_5"/><path d="M86.4 45.36h535.68" fill="none" stroke="#000" stroke-linecap="square" stroke-width=".8" id="patch_6"/></g></g><defs><clipPath id="p240f4f1a70"><path d="M86.4 45.36h535.68v291.06H86.4z"/></clipPath></defs></svg>