<svg height="664" viewBox="0 0 685 498" width="685pt" xmlns="http://www.w3.org/2000/svg" xmlns:xlink="http://www.w3.org/1999/xlink"><defs><style>*{stroke-linecap:butt;stroke-linejoin:round}</style></defs><g id="figure_1"><path d="M0 498.24h685.44V0H0z" fill="#fff" id="patch_1"/><g id="axes_1"><path d="M85.68 443.434h531.216V59.789H85.68z" fill="#fff" id="patch_2"/><g id="matplotlib.axis_1"><g id="xtick_1"><g id="line2d_1"><defs><path d="M0 0v3.5" id="mda84550dd2" stroke="#000" stroke-width=".8"/></defs><use x="127.96" xlink:href="#mda84550dd2" y="443.434" stroke="#000" stroke-width=".8"/></g><g id="text_1"><defs><path d="M59.516 10.406v19.578h-16.11v8.11h25.875V6.78Q63.578 2.734 56.687.656 49.813-1.422 42-1.422q-17.094 0-26.75 9.985-9.64 10-9.64 27.812 0 17.875 9.64 27.86 9.656 9.984 26.75 9.984 7.125 0 13.547-1.766 6.422-1.75 11.844-5.172v-10.5q-5.47 4.64-11.625 6.985-6.157 2.343-12.938 2.343-13.39 0-20.11-7.468-6.702-7.47-6.702-22.266 0-14.75 6.703-22.219 6.718-7.469 20.11-7.469 5.218 0 9.312.907 4.109.906 7.375 2.812z" id="DejaVuSans-47"/><path d="M30.61 48.39q-7.22 0-11.422-5.64-4.204-5.64-4.204-15.453 0-9.813 4.172-15.453 4.188-5.64 11.453-5.64 7.188 0 11.375 5.655 4.203 5.672 4.203 15.438 0 9.719-4.203 15.406-4.187 5.688-11.375 5.688zm0 7.61q11.718 0 18.406-7.625 6.703-7.61 6.703-21.078 0-13.422-6.703-21.078-6.688-7.64-18.407-7.64-11.765 0-18.437 7.64-6.656 7.656-6.656 21.078 0 13.469 6.656 21.078Q18.844 56 30.609 56z" id="DejaVuSans-6f"/></defs><g transform="matrix(.1 0 0 -.1 121.026 458.032)"><use xlink:href="#DejaVuSans-47"/><use x="77.49" xlink:href="#DejaVuSans-6f"/></g></g></g><g id="xtick_2"><use x="216.857" xlink:href="#mda84550dd2" y="443.434" stroke="#000" stroke-width=".8" id="line2d_2"/><g id="text_2"><defs><path d="M53.516 70.516V60.89q-5.61 2.687-10.594 4-4.984 1.328-9.625 1.328-8.047 0-12.422-3.125t-4.375-8.89q0-4.845 2.906-7.313 2.907-2.453 11.016-3.97l5.953-1.218q11.031-2.11 16.281-7.406 5.25-5.297 5.25-14.172 0-10.61-7.11-16.078-7.093-5.469-20.812-5.469-5.172 0-11.015 1.172Q13.14.922 6.89 3.219v10.156q6-3.36 11.765-5.078 5.766-1.703 11.328-1.703 8.438 0 13.032 3.312 4.593 3.328 4.593 9.485 0 5.359-3.297 8.39-3.296 3.032-10.812 4.547L27.484 33.5q-11.03 2.188-15.968 6.875-4.922 4.688-4.922 13.047 0 9.672 6.812 15.234 6.813 5.563 18.766 5.563 5.14 0 10.453-.938 5.328-.922 10.89-2.765z" id="DejaVuSans-53"/><path d="M48.781 52.594v-8.407q-3.812 2.11-7.64 3.157-3.828 1.047-7.735 1.047-8.75 0-13.593-5.547-4.829-5.532-4.829-15.547 0-10.016 4.829-15.563 4.843-5.53 13.593-5.53 3.907 0 7.735 1.046 3.828 1.047 7.64 3.156V2.094Q45.016.344 40.984-.531q-4.015-.89-8.562-.89-12.36 0-19.64 7.765-7.266 7.765-7.266 20.953 0 13.375 7.343 21.031Q20.22 56 33.016 56q4.14 0 8.093-.86 3.953-.843 7.672-2.546z" id="DejaVuSans-63"/><path d="M34.281 27.484q-10.89 0-15.093-2.484-4.204-2.484-4.204-8.5 0-4.781 3.157-7.594 3.156-2.797 8.562-2.797 7.485 0 12 5.297 4.516 5.297 4.516 14.078v2zm17.922 3.72V0H43.22v8.297Q40.14 3.328 35.547.953q-4.594-2.375-11.234-2.375-8.391 0-13.36 4.719Q6 8.016 6 15.922q0 9.219 6.172 13.906 6.187 4.688 18.437 4.688h12.61v.89q0 6.203-4.078 9.594-4.078 3.39-11.453 3.39-4.688 0-9.141-1.124-4.438-1.125-8.531-3.375v8.312q4.921 1.906 9.562 2.844 4.64.953 9.031.953 11.875 0 17.735-6.156 5.86-6.14 5.86-18.64z" id="DejaVuSans-61"/><path d="M9.422 75.984h8.984V0H9.422z" id="DejaVuSans-6c"/></defs><g transform="matrix(.1 0 0 -.1 203.417 458.032)"><use xlink:href="#DejaVuSans-53"/><use x="63.477" xlink:href="#DejaVuSans-63"/><use x="118.457" xlink:href="#DejaVuSans-61"/><use x="179.736" xlink:href="#DejaVuSans-6c"/><use x="207.52" xlink:href="#DejaVuSans-61"/></g></g></g><g id="xtick_3"><use x="305.755" xlink:href="#mda84550dd2" y="443.434" stroke="#000" stroke-width=".8" id="line2d_3"/><g id="text_3"><defs><path d="M9.813 72.906h9.859V5.078q0-13.187-5-19.14-5-5.954-16.094-5.954h-3.75v8.297h3.078q6.531 0 9.219 3.672Q9.813-4.39 9.813 5.078z" id="DejaVuSans-4a"/><path d="M2.984 54.688H12.5L29.594 8.797l17.093 45.89h9.516L35.687 0H23.485z" id="DejaVuSans-76"/></defs><g transform="matrix(.1 0 0 -.1 295.192 458.032)"><use xlink:href="#DejaVuSans-4a"/><use x="29.492" xlink:href="#DejaVuSans-61"/><use x="90.771" xlink:href="#DejaVuSans-76"/><use x="149.951" xlink:href="#DejaVuSans-61"/></g></g></g><g id="xtick_4"><use x="394.652" xlink:href="#mda84550dd2" y="443.434" stroke="#000" stroke-width=".8" id="line2d_4"/><g id="text_4"><defs><path d="M9.813 72.906h13.28l32.329-60.984v60.984h9.562V0h-13.28L19.39 60.984V0H9.813z" id="DejaVuSans-4e"/><path d="M45.406 46.39v29.594h8.985V0h-8.985v8.203Q42.578 3.328 38.25.953q-4.313-2.375-10.375-2.375-9.906 0-16.14 7.906-6.22 7.922-6.22 20.813 0 12.89 6.22 20.797Q17.968 56 27.874 56q6.063 0 10.375-2.375 4.328-2.36 7.156-7.234zm-30.61-19.093q0-9.906 4.079-15.547 4.078-5.64 11.203-5.64 7.125 0 11.219 5.64 4.11 5.64 4.11 15.547 0 9.906-4.11 15.547-4.094 5.64-11.219 5.64-7.125 0-11.203-5.64-4.078-5.64-4.078-15.547z" id="DejaVuSans-64"/><path d="M56.203 29.594v-4.39H14.891q.593-9.282 5.593-14.142 5-4.859 13.938-4.859 5.172 0 10.031 1.266 4.86 1.265 9.656 3.812v-8.5Q49.266.734 44.187-.344 39.11-1.422 33.892-1.422q-13.094 0-20.735 7.61-7.64 7.625-7.64 20.625 0 13.421 7.25 21.296Q20.016 56 32.328 56q11.031 0 17.453-7.11 6.422-7.093 6.422-19.296zm-8.984 2.64q-.094 7.36-4.125 11.75-4.032 4.407-10.672 4.407-7.516 0-12.031-4.25-4.516-4.25-5.203-11.97z" id="DejaVuSans-65"/></defs><g transform="matrix(.1 0 0 -.1 381.602 458.032)"><use xlink:href="#DejaVuSans-4e"/><use x="74.805" xlink:href="#DejaVuSans-6f"/><use x="135.986" xlink:href="#DejaVuSans-64"/><use x="199.463" xlink:href="#DejaVuSans-65"/></g></g></g><g id="xtick_5"><use x="483.55" xlink:href="#mda84550dd2" y="443.434" stroke="#000" stroke-width=".8" id="line2d_5"/><g id="text_5"><defs><path d="M9.422 54.688h8.984V0H9.422zm0 21.296h8.984v-11.39H9.422z" id="DejaVuSans-69"/><path d="M52 44.188q3.375 6.062 8.063 8.937Q64.75 56 71.093 56q8.548 0 13.188-5.984 4.64-5.97 4.64-17V0h-9.03v32.719q0 7.86-2.797 11.656-2.781 3.813-8.485 3.813-6.984 0-11.046-4.641-4.047-4.625-4.047-12.64V0h-9.032v32.719q0 7.906-2.78 11.687-2.782 3.782-8.595 3.782-6.89 0-10.953-4.657-4.047-4.656-4.047-12.625V0H9.08v54.688h9.03v-8.5q3.078 5.03 7.375 7.421Q29.781 56 35.687 56q5.97 0 10.141-3.031Q50 49.953 52 44.187z" id="DejaVuSans-6d"/></defs><g transform="matrix(.1 0 0 -.1 457.78 458.032)"><use xlink:href="#DejaVuSans-4e"/><use x="74.805" xlink:href="#DejaVuSans-6f"/><use x="135.986" xlink:href="#DejaVuSans-64"/><use x="199.463" xlink:href="#DejaVuSans-65"/><use x="260.986" xlink:href="#DejaVuSans-20"/><use x="292.773" xlink:href="#DejaVuSans-69"/><use x="320.557" xlink:href="#DejaVuSans-6d"/><use x="417.969" xlink:href="#DejaVuSans-6d"/></g></g></g><g id="xtick_6"><use x="572.447" xlink:href="#mda84550dd2" y="443.434" stroke="#000" stroke-width=".8" id="line2d_6"/><g id="text_6"><defs><path d="M9.813 72.906h9.859v-29.89h35.844v29.89h9.859V0h-9.86v34.719H19.673V0h-9.86z" id="DejaVuSans-48"/><path d="M44.281 53.078v-8.5q-3.797 1.953-7.906 2.922-4.094.984-8.5.984-6.688 0-10.031-2.047-3.344-2.046-3.344-6.156 0-3.125 2.39-4.906 2.391-1.781 9.626-3.39l3.078-.688q9.562-2.047 13.593-5.781 4.032-3.735 4.032-10.422 0-7.625-6.032-12.078-6.03-4.438-16.578-4.438-4.39 0-9.156.86Q10.688.296 5.422 2v9.281q4.984-2.594 9.812-3.89 4.829-1.282 9.579-1.282 6.343 0 9.75 2.172 3.421 2.172 3.421 6.125 0 3.656-2.468 5.61-2.453 1.953-10.813 3.765l-3.125.735q-8.344 1.75-12.062 5.39-3.704 3.64-3.704 9.985 0 7.718 5.47 11.906Q16.75 56 26.811 56q4.97 0 9.36-.734 4.406-.72 8.11-2.188z" id="DejaVuSans-73"/><path d="M9.078 75.984h9.031V31.11l26.813 23.578H56.39l-29-25.578L57.625 0H45.906L18.11 26.703V0H9.08z" id="DejaVuSans-6b"/></defs><g transform="matrix(.1 0 0 -.1 554.27 458.032)"><use xlink:href="#DejaVuSans-48"/><use x="75.195" xlink:href="#DejaVuSans-61"/><use x="136.475" xlink:href="#DejaVuSans-73"/><use x="188.574" xlink:href="#DejaVuSans-6b"/><use x="246.438" xlink:href="#DejaVuSans-65"/><use x="307.961" xlink:href="#DejaVuSans-6c"/><use x="335.744" xlink:href="#DejaVuSans-6c"/></g></g></g></g><g id="matplotlib.axis_2"><g id="ytick_1"><g id="line2d_7"><defs><path d="M0 0h-3.5" id="mefc391eeeb" stroke="#000" stroke-width=".8"/></defs><use x="85.68" xlink:href="#mefc391eeeb" y="412.3" stroke="#000" stroke-width=".8"/></g><g id="text_7"><defs><path d="M31.781 66.406q-7.61 0-11.453-7.5Q16.5 51.422 16.5 36.375q0-14.984 3.828-22.484 3.844-7.5 11.453-7.5 7.672 0 11.5 7.5 3.844 7.5 3.844 22.484 0 15.047-3.844 22.531-3.828 7.5-11.5 7.5zm0 7.813q12.266 0 18.735-9.703 6.468-9.688 6.468-28.141 0-18.406-6.468-28.11-6.47-9.687-18.735-9.687-12.25 0-18.718 9.688-6.47 9.703-6.47 28.109 0 18.453 6.47 28.14Q19.53 74.22 31.78 74.22z" id="DejaVuSans-30"/></defs><use xlink:href="#DejaVuSans-30" transform="matrix(.1 0 0 -.1 72.317 416.1)"/></g></g><g id="ytick_2"><use x="85.68" xlink:href="#mefc391eeeb" y="358.814" stroke="#000" stroke-width=".8" id="line2d_8"/><g id="text_8"><defs><path d="M12.406 8.297h16.11v55.625l-17.532-3.516v8.985l17.438 3.515h9.86V8.296H54.39V0H12.406z" id="DejaVuSans-31"/></defs><g transform="matrix(.1 0 0 -.1 65.955 362.614)"><use xlink:href="#DejaVuSans-31"/><use x="63.623" xlink:href="#DejaVuSans-30"/></g></g></g><g id="ytick_3"><use x="85.68" xlink:href="#mefc391eeeb" y="305.329" stroke="#000" stroke-width=".8" id="line2d_9"/><g id="text_9"><defs><path d="M19.188 8.297h34.421V0H7.33v8.297q5.609 5.812 15.296 15.594 9.703 9.797 12.188 12.64 4.734 5.313 6.609 9 1.89 3.688 1.89 7.25 0 5.813-4.078 9.469-4.078 3.672-10.625 3.672-4.64 0-9.797-1.61-5.14-1.609-11-4.89v9.969Q13.767 71.78 18.938 73q5.188 1.219 9.485 1.219 11.328 0 18.062-5.672 6.735-5.656 6.735-15.125 0-4.5-1.688-8.531-1.672-4.016-6.125-9.485-1.218-1.422-7.765-8.187-6.532-6.766-18.453-18.922z" id="DejaVuSans-32"/></defs><g transform="matrix(.1 0 0 -.1 65.955 309.128)"><use xlink:href="#DejaVuSans-32"/><use x="63.623" xlink:href="#DejaVuSans-30"/></g></g></g><g id="ytick_4"><use x="85.68" xlink:href="#mefc391eeeb" y="251.843" stroke="#000" stroke-width=".8" id="line2d_10"/><g id="text_10"><defs><path d="M40.578 39.313Q47.656 37.797 51.625 33q3.984-4.781 3.984-11.813 0-10.78-7.422-16.703-7.421-5.906-21.093-5.906-4.578 0-9.438.906-4.86.907-10.031 2.72v9.515q4.094-2.39 8.969-3.61 4.89-1.218 10.218-1.218 9.266 0 14.125 3.656 4.86 3.656 4.86 10.64 0 6.454-4.516 10.079-4.515 3.64-12.562 3.64h-8.5v8.11h8.89q7.266 0 11.125 2.906 3.86 2.906 3.86 8.375 0 5.61-3.985 8.61-3.968 3.015-11.39 3.015-4.063 0-8.703-.89-4.641-.876-10.203-2.72v8.782q5.624 1.562 10.53 2.344 4.907.78 9.25.78 11.235 0 17.766-5.109 6.547-5.093 6.547-13.78 0-6.063-3.468-10.235-3.47-4.172-9.86-5.782z" id="DejaVuSans-33"/></defs><g transform="matrix(.1 0 0 -.1 65.955 255.642)"><use xlink:href="#DejaVuSans-33"/><use x="63.623" xlink:href="#DejaVuSans-30"/></g></g></g><g id="ytick_5"><use x="85.68" xlink:href="#mefc391eeeb" y="198.357" stroke="#000" stroke-width=".8" id="line2d_11"/><g id="text_11"><defs><path d="M37.797 64.313L12.89 25.39h24.906zm-2.594 8.593H47.61V25.391h10.407v-8.203H47.609V0h-9.812v17.188H4.89v9.515z" id="DejaVuSans-34"/></defs><g transform="matrix(.1 0 0 -.1 65.955 202.156)"><use xlink:href="#DejaVuSans-34"/><use x="63.623" xlink:href="#DejaVuSans-30"/></g></g></g><g id="ytick_6"><use x="85.68" xlink:href="#mefc391eeeb" y="144.871" stroke="#000" stroke-width=".8" id="line2d_12"/><g id="text_12"><defs><path d="M10.797 72.906h38.719v-8.312H19.828v-17.86q2.14.735 4.281 1.094 2.157.36 4.313.36 12.203 0 19.328-6.688 7.14-6.688 7.14-18.11 0-11.765-7.328-18.296-7.328-6.516-20.656-6.516-4.593 0-9.36.781-4.75.782-9.827 2.344v9.922q4.39-2.39 9.078-3.563 4.687-1.171 9.906-1.171 8.453 0 13.375 4.437 4.938 4.438 4.938 12.063 0 7.609-4.938 12.047-4.922 4.453-13.375 4.453-3.953 0-7.89-.875-3.922-.875-8.016-2.735z" id="DejaVuSans-35"/></defs><g transform="matrix(.1 0 0 -.1 65.955 148.67)"><use xlink:href="#DejaVuSans-35"/><use x="63.623" xlink:href="#DejaVuSans-30"/></g></g></g><g id="ytick_7"><use x="85.68" xlink:href="#mefc391eeeb" y="91.386" stroke="#000" stroke-width=".8" id="line2d_13"/><g id="text_13"><defs><path d="M33.016 40.375q-6.641 0-10.532-4.547-3.875-4.531-3.875-12.437 0-7.86 3.875-12.438 3.891-4.562 10.532-4.562 6.64 0 10.515 4.562 3.875 4.578 3.875 12.438 0 7.906-3.875 12.437-3.875 4.547-10.515 4.547zm19.578 30.922v-8.984q-3.719 1.75-7.5 2.671-3.782.938-7.5.938-9.766 0-14.922-6.594-5.14-6.594-5.875-19.922 2.875 4.25 7.219 6.516 4.359 2.266 9.578 2.266 10.984 0 17.36-6.672 6.374-6.657 6.374-18.125 0-11.235-6.64-18.032-6.641-6.78-17.672-6.78-12.657 0-19.344 9.687-6.688 9.703-6.688 28.109 0 17.281 8.204 27.563 8.203 10.28 22.015 10.28 3.719 0 7.5-.734t7.89-2.187z" id="DejaVuSans-36"/></defs><g transform="matrix(.1 0 0 -.1 65.955 95.185)"><use xlink:href="#DejaVuSans-36"/><use x="63.623" xlink:href="#DejaVuSans-30"/></g></g></g></g><path clip-path="url(#pc94534b4d1)" d="M105.736 405.807h44.448v-48.9h-44.448v48.9" fill="none" stroke="#000" stroke-linecap="square" id="line2d_14"/><path clip-path="url(#pc94534b4d1)" d="M127.96 405.807v5.338" fill="none" stroke="#000" stroke-linecap="square" id="line2d_15"/><path clip-path="url(#pc94534b4d1)" d="M127.96 356.908v-73.172" fill="none" stroke="#000" stroke-linecap="square" id="line2d_16"/><path clip-path="url(#pc94534b4d1)" d="M116.848 411.145h22.224" fill="none" stroke="#000" stroke-linecap="square" id="line2d_17"/><path clip-path="url(#pc94534b4d1)" d="M116.848 283.736h22.224" fill="none" stroke="#000" stroke-linecap="square" id="line2d_18"/><g id="line2d_19"><defs><path d="M0 3a3 3 0 1 0 0-6 3 3 0 0 0 0 6z" id="me65287a79f" stroke="#000"/></defs><g clip-path="url(#pc94534b4d1)" fill="none" stroke="#000"><use x="127.96" xlink:href="#me65287a79f" y="273.055"/><use x="127.96" xlink:href="#me65287a79f" y="283.549"/></g></g><path clip-path="url(#pc94534b4d1)" d="M194.633 406.428h44.449v-43.361h-44.449v43.36" fill="none" stroke="#000" stroke-linecap="square" id="line2d_20"/><path clip-path="url(#pc94534b4d1)" d="M216.857 406.428v5.263" fill="none" stroke="#000" stroke-linecap="square" id="line2d_21"/><path clip-path="url(#pc94534b4d1)" d="M216.857 363.067v-57.22" fill="none" stroke="#000" stroke-linecap="square" id="line2d_22"/><path clip-path="url(#pc94534b4d1)" d="M205.745 411.69h22.225" fill="none" stroke="#000" stroke-linecap="square" id="line2d_23"/><path clip-path="url(#pc94534b4d1)" d="M205.745 305.848h22.225" fill="none" stroke="#000" stroke-linecap="square" id="line2d_24"/><g clip-path="url(#pc94534b4d1)" fill="none" stroke="#000" id="line2d_25"><use x="216.857" xlink:href="#me65287a79f" y="293.717"/><use x="216.857" xlink:href="#me65287a79f" y="276.949"/><use x="216.857" xlink:href="#me65287a79f" y="289.534"/><use x="216.857" xlink:href="#me65287a79f" y="259.251"/><use x="216.857" xlink:href="#me65287a79f" y="269.868"/><use x="216.857" xlink:href="#me65287a79f" y="294.305"/><use x="216.857" xlink:href="#me65287a79f" y="260.465"/><use x="216.857" xlink:href="#me65287a79f" y="265.733"/><use x="216.857" xlink:href="#me65287a79f" y="291.043"/><use x="216.857" xlink:href="#me65287a79f" y="231.096"/><use x="216.857" xlink:href="#me65287a79f" y="294.049"/><use x="216.857" xlink:href="#me65287a79f" y="287.497"/><use x="216.857" xlink:href="#me65287a79f" y="275.141"/><use x="216.857" xlink:href="#me65287a79f" y="296.466"/></g><path clip-path="url(#pc94534b4d1)" d="M283.53 385.49h44.45v-94.397h-44.45v94.398" fill="none" stroke="#000" stroke-linecap="square" id="line2d_26"/><path clip-path="url(#pc94534b4d1)" d="M305.755 385.49v24.703" fill="none" stroke="#000" stroke-linecap="square" id="line2d_27"/><path clip-path="url(#pc94534b4d1)" d="M305.755 291.093V158.007" fill="none" stroke="#000" stroke-linecap="square" id="line2d_28"/><path clip-path="url(#pc94534b4d1)" d="M294.643 410.193h22.224" fill="none" stroke="#000" stroke-linecap="square" id="line2d_29"/><path clip-path="url(#pc94534b4d1)" d="M294.643 158.007h22.224" fill="none" stroke="#000" stroke-linecap="square" id="line2d_30"/><path clip-path="url(#pc94534b4d1)" d="M372.428 373.523h44.449v-176.77h-44.449v176.77" fill="none" stroke="#000" stroke-linecap="square" id="line2d_32"/><path clip-path="url(#pc94534b4d1)" d="M394.652 373.523v34.498" fill="none" stroke="#000" stroke-linecap="square" id="line2d_33"/><path clip-path="url(#pc94534b4d1)" d="M394.652 196.753v-97.88" fill="none" stroke="#000" stroke-linecap="square" id="line2d_34"/><path clip-path="url(#pc94534b4d1)" d="M383.54 408.021h22.225" fill="none" stroke="#000" stroke-linecap="square" id="line2d_35"/><path clip-path="url(#pc94534b4d1)" d="M383.54 98.874h22.225" fill="none" stroke="#000" stroke-linecap="square" id="line2d_36"/><path clip-path="url(#pc94534b4d1)" d="M461.325 384.488h44.45V377h-44.45v7.488" fill="none" stroke="#000" stroke-linecap="square" id="line2d_38"/><path clip-path="url(#pc94534b4d1)" d="M483.55 384.488v8.557" fill="none" stroke="#000" stroke-linecap="square" id="line2d_39"/><path clip-path="url(#pc94534b4d1)" d="M483.55 377v-11.232" fill="none" stroke="#000" stroke-linecap="square" id="line2d_40"/><path clip-path="url(#pc94534b4d1)" d="M472.438 393.045h22.224" fill="none" stroke="#000" stroke-linecap="square" id="line2d_41"/><path clip-path="url(#pc94534b4d1)" d="M472.438 365.768h22.224" fill="none" stroke="#000" stroke-linecap="square" id="line2d_42"/><g clip-path="url(#pc94534b4d1)" fill="none" stroke="#000" id="line2d_43"><use x="483.55" xlink:href="#me65287a79f" y="408.021"/><use x="483.55" xlink:href="#me65287a79f" y="407.487"/><use x="483.55" xlink:href="#me65287a79f" y="406.952"/><use x="483.55" xlink:href="#me65287a79f" y="407.487"/><use x="483.55" xlink:href="#me65287a79f" y="404.277"/><use x="483.55" xlink:href="#me65287a79f" y="403.743"/><use x="483.55" xlink:href="#me65287a79f" y="399.999"/><use x="483.55" xlink:href="#me65287a79f" y="397.324"/><use x="483.55" xlink:href="#me65287a79f" y="398.929"/><use x="483.55" xlink:href="#me65287a79f" y="396.789"/><use x="483.55" xlink:href="#me65287a79f" y="397.859"/><use x="483.55" xlink:href="#me65287a79f" y="408.556"/><use x="483.55" xlink:href="#me65287a79f" y="408.556"/><use x="483.55" xlink:href="#me65287a79f" y="409.626"/><use x="483.55" xlink:href="#me65287a79f" y="407.487"/><use x="483.55" xlink:href="#me65287a79f" y="404.277"/><use x="483.55" xlink:href="#me65287a79f" y="404.277"/><use x="483.55" xlink:href="#me65287a79f" y="399.999"/><use x="483.55" xlink:href="#me65287a79f" y="396.789"/><use x="483.55" xlink:href="#me65287a79f" y="399.464"/><use x="483.55" xlink:href="#me65287a79f" y="404.277"/><use x="483.55" xlink:href="#me65287a79f" y="408.021"/><use x="483.55" xlink:href="#me65287a79f" y="407.487"/><use x="483.55" xlink:href="#me65287a79f" y="409.626"/><use x="483.55" xlink:href="#me65287a79f" y="405.882"/><use x="483.55" xlink:href="#me65287a79f" y="403.208"/><use x="483.55" xlink:href="#me65287a79f" y="404.277"/><use x="483.55" xlink:href="#me65287a79f" y="401.068"/><use x="483.55" xlink:href="#me65287a79f" y="398.929"/><use x="483.55" xlink:href="#me65287a79f" y="397.324"/><use x="483.55" xlink:href="#me65287a79f" y="396.255"/><use x="483.55" xlink:href="#me65287a79f" y="397.324"/><use x="483.55" xlink:href="#me65287a79f" y="407.487"/><use x="483.55" xlink:href="#me65287a79f" y="408.021"/><use x="483.55" xlink:href="#me65287a79f" y="409.626"/><use x="483.55" xlink:href="#me65287a79f" y="405.347"/><use x="483.55" xlink:href="#me65287a79f" y="405.347"/><use x="483.55" xlink:href="#me65287a79f" y="404.812"/><use x="483.55" xlink:href="#me65287a79f" y="399.464"/><use x="483.55" xlink:href="#me65287a79f" y="401.068"/><use x="483.55" xlink:href="#me65287a79f" y="399.464"/><use x="483.55" xlink:href="#me65287a79f" y="396.255"/><use x="483.55" xlink:href="#me65287a79f" y="408.021"/><use x="483.55" xlink:href="#me65287a79f" y="407.487"/><use x="483.55" xlink:href="#me65287a79f" y="409.626"/><use x="483.55" xlink:href="#me65287a79f" y="406.952"/><use x="483.55" xlink:href="#me65287a79f" y="404.812"/><use x="483.55" xlink:href="#me65287a79f" y="404.277"/><use x="483.55" xlink:href="#me65287a79f" y="401.603"/><use x="483.55" xlink:href="#me65287a79f" y="396.255"/><use x="483.55" xlink:href="#me65287a79f" y="399.464"/><use x="483.55" xlink:href="#me65287a79f" y="396.789"/><use x="483.55" xlink:href="#me65287a79f" y="401.603"/><use x="483.55" xlink:href="#me65287a79f" y="365.233"/><use x="483.55" xlink:href="#me65287a79f" y="352.931"/><use x="483.55" xlink:href="#me65287a79f" y="357.745"/><use x="483.55" xlink:href="#me65287a79f" y="362.559"/><use x="483.55" xlink:href="#me65287a79f" y="364.163"/><use x="483.55" xlink:href="#me65287a79f" y="362.559"/><use x="483.55" xlink:href="#me65287a79f" y="357.745"/><use x="483.55" xlink:href="#me65287a79f" y="355.605"/><use x="483.55" xlink:href="#me65287a79f" y="360.419"/><use x="483.55" xlink:href="#me65287a79f" y="364.163"/><use x="483.55" xlink:href="#me65287a79f" y="364.163"/><use x="483.55" xlink:href="#me65287a79f" y="361.489"/><use x="483.55" xlink:href="#me65287a79f" y="355.605"/><use x="483.55" xlink:href="#me65287a79f" y="355.07"/><use x="483.55" xlink:href="#me65287a79f" y="356.14"/><use x="483.55" xlink:href="#me65287a79f" y="349.187"/><use x="483.55" xlink:href="#me65287a79f" y="357.745"/><use x="483.55" xlink:href="#me65287a79f" y="360.954"/><use x="483.55" xlink:href="#me65287a79f" y="341.164"/><use x="483.55" xlink:href="#me65287a79f" y="358.28"/><use x="483.55" xlink:href="#me65287a79f" y="355.07"/><use x="483.55" xlink:href="#me65287a79f" y="360.419"/><use x="483.55" xlink:href="#me65287a79f" y="343.838"/><use x="483.55" xlink:href="#me65287a79f" y="334.746"/><use x="483.55" xlink:href="#me65287a79f" y="363.628"/><use x="483.55" xlink:href="#me65287a79f" y="354.536"/><use x="483.55" xlink:href="#me65287a79f" y="359.884"/><use x="483.55" xlink:href="#me65287a79f" y="362.024"/><use x="483.55" xlink:href="#me65287a79f" y="360.419"/><use x="483.55" xlink:href="#me65287a79f" y="358.814"/><use x="483.55" xlink:href="#me65287a79f" y="361.489"/><use x="483.55" xlink:href="#me65287a79f" y="349.187"/><use x="483.55" xlink:href="#me65287a79f" y="358.814"/><use x="483.55" xlink:href="#me65287a79f" y="362.024"/><use x="483.55" xlink:href="#me65287a79f" y="360.419"/><use x="483.55" xlink:href="#me65287a79f" y="354.001"/><use x="483.55" xlink:href="#me65287a79f" y="337.42"/><use x="483.55" xlink:href="#me65287a79f" y="331.537"/><use x="483.55" xlink:href="#me65287a79f" y="363.628"/><use x="483.55" xlink:href="#me65287a79f" y="334.211"/><use x="483.55" xlink:href="#me65287a79f" y="350.792"/><use x="483.55" xlink:href="#me65287a79f" y="356.14"/><use x="483.55" xlink:href="#me65287a79f" y="350.257"/><use x="483.55" xlink:href="#me65287a79f" y="363.628"/><use x="483.55" xlink:href="#me65287a79f" y="355.605"/><use x="483.55" xlink:href="#me65287a79f" y="347.048"/><use x="483.55" xlink:href="#me65287a79f" y="363.628"/><use x="483.55" xlink:href="#me65287a79f" y="358.814"/><use x="483.55" xlink:href="#me65287a79f" y="326.723"/><use x="483.55" xlink:href="#me65287a79f" y="360.954"/><use x="483.55" xlink:href="#me65287a79f" y="355.07"/><use x="483.55" xlink:href="#me65287a79f" y="365.233"/><use x="483.55" xlink:href="#me65287a79f" y="364.163"/><use x="483.55" xlink:href="#me65287a79f" y="362.024"/><use x="483.55" xlink:href="#me65287a79f" y="365.233"/><use x="483.55" xlink:href="#me65287a79f" y="361.489"/><use x="483.55" xlink:href="#me65287a79f" y="364.163"/><use x="483.55" xlink:href="#me65287a79f" y="355.07"/><use x="483.55" xlink:href="#me65287a79f" y="355.07"/><use x="483.55" xlink:href="#me65287a79f" y="356.675"/><use x="483.55" xlink:href="#me65287a79f" y="310.677"/><use x="483.55" xlink:href="#me65287a79f" y="345.978"/><use x="483.55" xlink:href="#me65287a79f" y="359.349"/><use x="483.55" xlink:href="#me65287a79f" y="324.049"/><use x="483.55" xlink:href="#me65287a79f" y="350.257"/><use x="483.55" xlink:href="#me65287a79f" y="357.21"/><use x="483.55" xlink:href="#me65287a79f" y="355.07"/><use x="483.55" xlink:href="#me65287a79f" y="362.024"/><use x="483.55" xlink:href="#me65287a79f" y="344.373"/><use x="483.55" xlink:href="#me65287a79f" y="358.814"/><use x="483.55" xlink:href="#me65287a79f" y="362.559"/><use x="483.55" xlink:href="#me65287a79f" y="362.559"/><use x="483.55" xlink:href="#me65287a79f" y="362.559"/><use x="483.55" xlink:href="#me65287a79f" y="359.349"/><use x="483.55" xlink:href="#me65287a79f" y="356.675"/><use x="483.55" xlink:href="#me65287a79f" y="357.21"/><use x="483.55" xlink:href="#me65287a79f" y="365.233"/><use x="483.55" xlink:href="#me65287a79f" y="357.21"/><use x="483.55" xlink:href="#me65287a79f" y="352.931"/><use x="483.55" xlink:href="#me65287a79f" y="348.117"/><use x="483.55" xlink:href="#me65287a79f" y="290.888"/><use x="483.55" xlink:href="#me65287a79f" y="344.908"/><use x="483.55" xlink:href="#me65287a79f" y="355.605"/><use x="483.55" xlink:href="#me65287a79f" y="340.094"/><use x="483.55" xlink:href="#me65287a79f" y="353.466"/><use x="483.55" xlink:href="#me65287a79f" y="335.816"/><use x="483.55" xlink:href="#me65287a79f" y="363.628"/><use x="483.55" xlink:href="#me65287a79f" y="342.234"/><use x="483.55" xlink:href="#me65287a79f" y="353.466"/><use x="483.55" xlink:href="#me65287a79f" y="358.28"/><use x="483.55" xlink:href="#me65287a79f" y="362.559"/><use x="483.55" xlink:href="#me65287a79f" y="361.489"/><use x="483.55" xlink:href="#me65287a79f" y="355.07"/><use x="483.55" xlink:href="#me65287a79f" y="350.792"/><use x="483.55" xlink:href="#me65287a79f" y="362.024"/><use x="483.55" xlink:href="#me65287a79f" y="362.559"/><use x="483.55" xlink:href="#me65287a79f" y="363.093"/><use x="483.55" xlink:href="#me65287a79f" y="357.745"/><use x="483.55" xlink:href="#me65287a79f" y="356.675"/><use x="483.55" xlink:href="#me65287a79f" y="360.419"/><use x="483.55" xlink:href="#me65287a79f" y="301.585"/><use x="483.55" xlink:href="#me65287a79f" y="351.326"/><use x="483.55" xlink:href="#me65287a79f" y="336.885"/><use x="483.55" xlink:href="#me65287a79f" y="364.163"/><use x="483.55" xlink:href="#me65287a79f" y="320.84"/><use x="483.55" xlink:href="#me65287a79f" y="348.652"/><use x="483.55" xlink:href="#me65287a79f" y="357.745"/><use x="483.55" xlink:href="#me65287a79f" y="343.304"/><use x="483.55" xlink:href="#me65287a79f" y="364.698"/><use x="483.55" xlink:href="#me65287a79f" y="359.349"/><use x="483.55" xlink:href="#me65287a79f" y="336.35"/></g><path clip-path="url(#pc94534b4d1)" d="M550.223 396.255h44.449V230.449h-44.45v165.806" fill="none" stroke="#000" stroke-linecap="square" id="line2d_44"/><path clip-path="url(#pc94534b4d1)" d="M572.447 396.255v10.697" fill="none" stroke="#000" stroke-linecap="square" id="line2d_45"/><path clip-path="url(#pc94534b4d1)" d="M572.447 230.449V69.99" fill="none" stroke="#000" stroke-linecap="square" id="line2d_46"/><path clip-path="url(#pc94534b4d1)" d="M561.335 406.952h22.224" fill="none" stroke="#000" stroke-linecap="square" id="line2d_47"/><path clip-path="url(#pc94534b4d1)" d="M561.335 69.991h22.224" fill="none" stroke="#000" stroke-linecap="square" id="line2d_48"/><path clip-path="url(#pc94534b4d1)" d="M105.736 392.214h44.448" fill="none" stroke="#ff7f0e" stroke-linecap="square" id="line2d_50"/><g id="line2d_51"><defs><path d="M0-3l-3 6h6z" id="m275f8288ff" stroke="#2ca02c"/></defs><g clip-path="url(#pc94534b4d1)"><use x="127.96" xlink:href="#m275f8288ff" y="377.884" fill="#2ca02c" stroke="#2ca02c"/></g></g><path clip-path="url(#pc94534b4d1)" d="M194.633 396.725h44.449" fill="none" stroke="#ff7f0e" stroke-linecap="square" id="line2d_52"/><g clip-path="url(#pc94534b4d1)" id="line2d_53"><use x="216.857" xlink:href="#m275f8288ff" y="381.143" fill="#2ca02c" stroke="#2ca02c"/></g><path clip-path="url(#pc94534b4d1)" d="M283.53 324.576h44.45" fill="none" stroke="#ff7f0e" stroke-linecap="square" id="line2d_54"/><g clip-path="url(#pc94534b4d1)" id="line2d_55"><use x="305.755" xlink:href="#m275f8288ff" y="327.607" fill="#2ca02c" stroke="#2ca02c"/></g><path clip-path="url(#pc94534b4d1)" d="M372.428 224.565h44.449" fill="none" stroke="#ff7f0e" stroke-linecap="square" id="line2d_56"/><g clip-path="url(#pc94534b4d1)" id="line2d_57"><use x="394.652" xlink:href="#m275f8288ff" y="244.114" fill="#2ca02c" stroke="#2ca02c"/></g><path clip-path="url(#pc94534b4d1)" d="M461.325 381.813h44.45" fill="none" stroke="#ff7f0e" stroke-linecap="square" id="line2d_58"/><g clip-path="url(#pc94534b4d1)" id="line2d_59"><use x="483.55" xlink:href="#m275f8288ff" y="379.457" fill="#2ca02c" stroke="#2ca02c"/></g><path clip-path="url(#pc94534b4d1)" d="M550.223 283.934h44.449" fill="none" stroke="#ff7f0e" stroke-linecap="square" id="line2d_60"/><g clip-path="url(#pc94534b4d1)" id="line2d_61"><use x="572.447" xlink:href="#m275f8288ff" y="296.321" fill="#2ca02c" stroke="#2ca02c"/></g><path d="M85.68 443.434V59.789" fill="none" stroke="#000" stroke-linecap="square" stroke-width=".8" id="patch_3"/><path d="M616.896 443.434V59.789" fill="none" stroke="#000" stroke-linecap="square" stroke-width=".8" id="patch_4"/><path d="M85.68 443.434h531.216" fill="none" stroke="#000" stroke-linecap="square" stroke-width=".8" id="patch_5"/><path d="M85.68 59.789h531.216" fill="none" stroke="#000" stroke-linecap="square" stroke-width=".8" id="patch_6"/></g></g><defs><clipPath id="pc94534b4d1"><path d="M85.68 59.789h531.216v383.645H85.68z"/></clipPath></defs></svg>