<svg height="664" viewBox="0 0 685 498" width="685pt" xmlns="http://www.w3.org/2000/svg" xmlns:xlink="http://www.w3.org/1999/xlink"><defs><style>*{stroke-linecap:butt;stroke-linejoin:round}</style></defs><g id="figure_1"><path d="M0 498.24h685.44V0H0z" fill="#fff" id="patch_1"/><g id="axes_1"><path d="M85.68 443.434h531.216V59.789H85.68z" fill="#fff" id="patch_2"/><g id="matplotlib.axis_1"><g id="xtick_1"><g id="line2d_1"><defs><path d="M0 0v3.5" id="m569f22281e" stroke="#000" stroke-width=".8"/></defs><use x="129.948" xlink:href="#m569f22281e" y="443.434" stroke="#000" stroke-width=".8"/></g><g id="text_1"><defs><path d="M59.516 10.406v19.578h-16.11v8.11h25.875V6.78Q63.578 2.734 56.687.656 49.813-1.422 42-1.422q-17.094 0-26.75 9.985-9.64 10-9.64 27.812 0 17.875 9.64 27.86 9.656 9.984 26.75 9.984 7.125 0 13.547-1.766 6.422-1.75 11.844-5.172v-10.5q-5.47 4.64-11.625 6.985-6.157 2.343-12.938 2.343-13.39 0-20.11-7.468-6.702-7.47-6.702-22.266 0-14.75 6.703-22.219 6.718-7.469 20.11-7.469 5.218 0 9.312.907 4.109.906 7.375 2.812z" id="DejaVuSans-47"/><path d="M30.61 48.39q-7.22 0-11.422-5.64-4.204-5.64-4.204-15.453 0-9.813 4.172-15.453 4.188-5.64 11.453-5.64 7.188 0 11.375 5.655 4.203 5.672 4.203 15.438 0 9.719-4.203 15.406-4.187 5.688-11.375 5.688zm0 7.61q11.718 0 18.406-7.625 6.703-7.61 6.703-21.078 0-13.422-6.703-21.078-6.688-7.64-18.407-7.64-11.765 0-18.437 7.64-6.656 7.656-6.656 21.078 0 13.469 6.656 21.078Q18.844 56 30.609 56z" id="DejaVuSans-6f"/></defs><g transform="matrix(.1 0 0 -.1 123.014 458.032)"><use xlink:href="#DejaVuSans-47"/><use x="77.49" xlink:href="#DejaVuSans-6f"/></g></g></g><g id="xtick_2"><use x="218.484" xlink:href="#m569f22281e" y="443.434" stroke="#000" stroke-width=".8" id="line2d_2"/><g id="text_2"><defs><path d="M53.516 70.516V60.89q-5.61 2.687-10.594 4-4.984 1.328-9.625 1.328-8.047 0-12.422-3.125t-4.375-8.89q0-4.845 2.906-7.313 2.907-2.453 11.016-3.97l5.953-1.218q11.031-2.11 16.281-7.406 5.25-5.297 5.25-14.172 0-10.61-7.11-16.078-7.093-5.469-20.812-5.469-5.172 0-11.015 1.172Q13.14.922 6.89 3.219v10.156q6-3.36 11.765-5.078 5.766-1.703 11.328-1.703 8.438 0 13.032 3.312 4.593 3.328 4.593 9.485 0 5.359-3.297 8.39-3.296 3.032-10.812 4.547L27.484 33.5q-11.03 2.188-15.968 6.875-4.922 4.688-4.922 13.047 0 9.672 6.812 15.234 6.813 5.563 18.766 5.563 5.14 0 10.453-.938 5.328-.922 10.89-2.765z" id="DejaVuSans-53"/><path d="M48.781 52.594v-8.407q-3.812 2.11-7.64 3.157-3.828 1.047-7.735 1.047-8.75 0-13.593-5.547-4.829-5.532-4.829-15.547 0-10.016 4.829-15.563 4.843-5.53 13.593-5.53 3.907 0 7.735 1.046 3.828 1.047 7.64 3.156V2.094Q45.016.344 40.984-.531q-4.015-.89-8.562-.89-12.36 0-19.64 7.765-7.266 7.765-7.266 20.953 0 13.375 7.343 21.031Q20.22 56 33.016 56q4.14 0 8.093-.86 3.953-.843 7.672-2.546z" id="DejaVuSans-63"/><path d="M34.281 27.484q-10.89 0-15.093-2.484-4.204-2.484-4.204-8.5 0-4.781 3.157-7.594 3.156-2.797 8.562-2.797 7.485 0 12 5.297 4.516 5.297 4.516 14.078v2zm17.922 3.72V0H43.22v8.297Q40.14 3.328 35.547.953q-4.594-2.375-11.234-2.375-8.391 0-13.36 4.719Q6 8.016 6 15.922q0 9.219 6.172 13.906 6.187 4.688 18.437 4.688h12.61v.89q0 6.203-4.078 9.594-4.078 3.39-11.453 3.39-4.688 0-9.141-1.124-4.438-1.125-8.531-3.375v8.312q4.921 1.906 9.562 2.844 4.64.953 9.031.953 11.875 0 17.735-6.156 5.86-6.14 5.86-18.64z" id="DejaVuSans-61"/><path d="M9.422 75.984h8.984V0H9.422z" id="DejaVuSans-6c"/></defs><g transform="matrix(.1 0 0 -.1 205.043 458.032)"><use xlink:href="#DejaVuSans-53"/><use x="63.477" xlink:href="#DejaVuSans-63"/><use x="118.457" xlink:href="#DejaVuSans-61"/><use x="179.736" xlink:href="#DejaVuSans-6c"/><use x="207.52" xlink:href="#DejaVuSans-61"/></g></g></g><g id="xtick_3"><use x="307.02" xlink:href="#m569f22281e" y="443.434" stroke="#000" stroke-width=".8" id="line2d_3"/><g id="text_3"><defs><path d="M9.813 72.906h9.859V5.078q0-13.187-5-19.14-5-5.954-16.094-5.954h-3.75v8.297h3.078q6.531 0 9.219 3.672Q9.813-4.39 9.813 5.078z" id="DejaVuSans-4a"/><path d="M2.984 54.688H12.5L29.594 8.797l17.093 45.89h9.516L35.687 0H23.485z" id="DejaVuSans-76"/></defs><g transform="matrix(.1 0 0 -.1 296.457 458.032)"><use xlink:href="#DejaVuSans-4a"/><use x="29.492" xlink:href="#DejaVuSans-61"/><use x="90.771" xlink:href="#DejaVuSans-76"/><use x="149.951" xlink:href="#DejaVuSans-61"/></g></g></g><g id="xtick_4"><use x="395.556" xlink:href="#m569f22281e" y="443.434" stroke="#000" stroke-width=".8" id="line2d_4"/><g id="text_4"><defs><path d="M9.813 72.906h13.28l32.329-60.984v60.984h9.562V0h-13.28L19.39 60.984V0H9.813z" id="DejaVuSans-4e"/><path d="M45.406 46.39v29.594h8.985V0h-8.985v8.203Q42.578 3.328 38.25.953q-4.313-2.375-10.375-2.375-9.906 0-16.14 7.906-6.22 7.922-6.22 20.813 0 12.89 6.22 20.797Q17.968 56 27.874 56q6.063 0 10.375-2.375 4.328-2.36 7.156-7.234zm-30.61-19.093q0-9.906 4.079-15.547 4.078-5.64 11.203-5.64 7.125 0 11.219 5.64 4.11 5.64 4.11 15.547 0 9.906-4.11 15.547-4.094 5.64-11.219 5.64-7.125 0-11.203-5.64-4.078-5.64-4.078-15.547z" id="DejaVuSans-64"/><path d="M56.203 29.594v-4.39H14.891q.593-9.282 5.593-14.142 5-4.859 13.938-4.859 5.172 0 10.031 1.266 4.86 1.265 9.656 3.812v-8.5Q49.266.734 44.187-.344 39.11-1.422 33.892-1.422q-13.094 0-20.735 7.61-7.64 7.625-7.64 20.625 0 13.421 7.25 21.296Q20.016 56 32.328 56q11.031 0 17.453-7.11 6.422-7.093 6.422-19.296zm-8.984 2.64q-.094 7.36-4.125 11.75-4.032 4.407-10.672 4.407-7.516 0-12.031-4.25-4.516-4.25-5.203-11.97z" id="DejaVuSans-65"/></defs><g transform="matrix(.1 0 0 -.1 382.505 458.032)"><use xlink:href="#DejaVuSans-4e"/><use x="74.805" xlink:href="#DejaVuSans-6f"/><use x="135.986" xlink:href="#DejaVuSans-64"/><use x="199.463" xlink:href="#DejaVuSans-65"/></g></g></g><g id="xtick_5"><use x="484.092" xlink:href="#m569f22281e" y="443.434" stroke="#000" stroke-width=".8" id="line2d_5"/><g id="text_5"><defs><path d="M9.422 54.688h8.984V0H9.422zm0 21.296h8.984v-11.39H9.422z" id="DejaVuSans-69"/><path d="M52 44.188q3.375 6.062 8.063 8.937Q64.75 56 71.093 56q8.548 0 13.188-5.984 4.64-5.97 4.64-17V0h-9.03v32.719q0 7.86-2.797 11.656-2.781 3.813-8.485 3.813-6.984 0-11.046-4.641-4.047-4.625-4.047-12.64V0h-9.032v32.719q0 7.906-2.78 11.687-2.782 3.782-8.595 3.782-6.89 0-10.953-4.657-4.047-4.656-4.047-12.625V0H9.08v54.688h9.03v-8.5q3.078 5.03 7.375 7.421Q29.781 56 35.687 56q5.97 0 10.141-3.031Q50 49.953 52 44.187z" id="DejaVuSans-6d"/></defs><g transform="matrix(.1 0 0 -.1 458.322 458.032)"><use xlink:href="#DejaVuSans-4e"/><use x="74.805" xlink:href="#DejaVuSans-6f"/><use x="135.986" xlink:href="#DejaVuSans-64"/><use x="199.463" xlink:href="#DejaVuSans-65"/><use x="260.986" xlink:href="#DejaVuSans-20"/><use x="292.773" xlink:href="#DejaVuSans-69"/><use x="320.557" xlink:href="#DejaVuSans-6d"/><use x="417.969" xlink:href="#DejaVuSans-6d"/></g></g></g><g id="xtick_6"><use x="572.628" xlink:href="#m569f22281e" y="443.434" stroke="#000" stroke-width=".8" id="line2d_6"/><g id="text_6"><defs><path d="M9.813 72.906h9.859v-29.89h35.844v29.89h9.859V0h-9.86v34.719H19.673V0h-9.86z" id="DejaVuSans-48"/><path d="M44.281 53.078v-8.5q-3.797 1.953-7.906 2.922-4.094.984-8.5.984-6.688 0-10.031-2.047-3.344-2.046-3.344-6.156 0-3.125 2.39-4.906 2.391-1.781 9.626-3.39l3.078-.688q9.562-2.047 13.593-5.781 4.032-3.735 4.032-10.422 0-7.625-6.032-12.078-6.03-4.438-16.578-4.438-4.39 0-9.156.86Q10.688.296 5.422 2v9.281q4.984-2.594 9.812-3.89 4.829-1.282 9.579-1.282 6.343 0 9.75 2.172 3.421 2.172 3.421 6.125 0 3.656-2.468 5.61-2.453 1.953-10.813 3.765l-3.125.735q-8.344 1.75-12.062 5.39-3.704 3.64-3.704 9.985 0 7.718 5.47 11.906Q16.75 56 26.811 56q4.97 0 9.36-.734 4.406-.72 8.11-2.188z" id="DejaVuSans-73"/><path d="M9.078 75.984h9.031V31.11l26.813 23.578H56.39l-29-25.578L57.625 0H45.906L18.11 26.703V0H9.08z" id="DejaVuSans-6b"/></defs><g transform="matrix(.1 0 0 -.1 554.451 458.032)"><use xlink:href="#DejaVuSans-48"/><use x="75.195" xlink:href="#DejaVuSans-61"/><use x="136.475" xlink:href="#DejaVuSans-73"/><use x="188.574" xlink:href="#DejaVuSans-6b"/><use x="246.438" xlink:href="#DejaVuSans-65"/><use x="307.961" xlink:href="#DejaVuSans-6c"/><use x="335.744" xlink:href="#DejaVuSans-6c"/></g></g></g></g><g id="matplotlib.axis_2"><g id="ytick_1"><g id="line2d_7"><defs><path d="M0 0h-3.5" id="m21f1fada8a" stroke="#000" stroke-width=".8"/></defs><use x="85.68" xlink:href="#m21f1fada8a" y="426.304" stroke="#000" stroke-width=".8"/></g><g id="text_7"><defs><path d="M31.781 66.406q-7.61 0-11.453-7.5Q16.5 51.422 16.5 36.375q0-14.984 3.828-22.484 3.844-7.5 11.453-7.5 7.672 0 11.5 7.5 3.844 7.5 3.844 22.484 0 15.047-3.844 22.531-3.828 7.5-11.5 7.5zm0 7.813q12.266 0 18.735-9.703 6.468-9.688 6.468-28.141 0-18.406-6.468-28.11-6.47-9.687-18.735-9.687-12.25 0-18.718 9.688-6.47 9.703-6.47 28.109 0 18.453 6.47 28.14Q19.53 74.22 31.78 74.22z" id="DejaVuSans-30"/></defs><use xlink:href="#DejaVuSans-30" transform="matrix(.1 0 0 -.1 72.317 430.103)"/></g></g><g id="ytick_2"><use x="85.68" xlink:href="#m21f1fada8a" y="372.1" stroke="#000" stroke-width=".8" id="line2d_8"/><g id="text_8"><defs><path d="M19.188 8.297h34.421V0H7.33v8.297q5.609 5.812 15.296 15.594 9.703 9.797 12.188 12.64 4.734 5.313 6.609 9 1.89 3.688 1.89 7.25 0 5.813-4.078 9.469-4.078 3.672-10.625 3.672-4.64 0-9.797-1.61-5.14-1.609-11-4.89v9.969Q13.767 71.78 18.938 73q5.188 1.219 9.485 1.219 11.328 0 18.062-5.672 6.735-5.656 6.735-15.125 0-4.5-1.688-8.531-1.672-4.016-6.125-9.485-1.218-1.422-7.765-8.187-6.532-6.766-18.453-18.922z" id="DejaVuSans-32"/></defs><g transform="matrix(.1 0 0 -.1 65.955 375.899)"><use xlink:href="#DejaVuSans-32"/><use x="63.623" xlink:href="#DejaVuSans-30"/></g></g></g><g id="ytick_3"><use x="85.68" xlink:href="#m21f1fada8a" y="317.895" stroke="#000" stroke-width=".8" id="line2d_9"/><g id="text_9"><defs><path d="M37.797 64.313L12.89 25.39h24.906zm-2.594 8.593H47.61V25.391h10.407v-8.203H47.609V0h-9.812v17.188H4.89v9.515z" id="DejaVuSans-34"/></defs><g transform="matrix(.1 0 0 -.1 65.955 321.694)"><use xlink:href="#DejaVuSans-34"/><use x="63.623" xlink:href="#DejaVuSans-30"/></g></g></g><g id="ytick_4"><use x="85.68" xlink:href="#m21f1fada8a" y="263.691" stroke="#000" stroke-width=".8" id="line2d_10"/><g id="text_10"><defs><path d="M33.016 40.375q-6.641 0-10.532-4.547-3.875-4.531-3.875-12.437 0-7.86 3.875-12.438 3.891-4.562 10.532-4.562 6.64 0 10.515 4.562 3.875 4.578 3.875 12.438 0 7.906-3.875 12.437-3.875 4.547-10.515 4.547zm19.578 30.922v-8.984q-3.719 1.75-7.5 2.671-3.782.938-7.5.938-9.766 0-14.922-6.594-5.14-6.594-5.875-19.922 2.875 4.25 7.219 6.516 4.359 2.266 9.578 2.266 10.984 0 17.36-6.672 6.374-6.657 6.374-18.125 0-11.235-6.64-18.032-6.641-6.78-17.672-6.78-12.657 0-19.344 9.687-6.688 9.703-6.688 28.109 0 17.281 8.204 27.563 8.203 10.28 22.015 10.28 3.719 0 7.5-.734t7.89-2.187z" id="DejaVuSans-36"/></defs><g transform="matrix(.1 0 0 -.1 65.955 267.49)"><use xlink:href="#DejaVuSans-36"/><use x="63.623" xlink:href="#DejaVuSans-30"/></g></g></g><g id="ytick_5"><use x="85.68" xlink:href="#m21f1fada8a" y="209.486" stroke="#000" stroke-width=".8" id="line2d_11"/><g id="text_11"><defs><path d="M31.781 34.625q-7.031 0-11.062-3.766-4.016-3.765-4.016-10.343 0-6.594 4.016-10.36Q24.75 6.391 31.78 6.391q7.032 0 11.078 3.78 4.063 3.798 4.063 10.345 0 6.578-4.031 10.343-4.016 3.766-11.11 3.766zm-9.86 4.188q-6.343 1.562-9.89 5.906Q8.5 49.079 8.5 55.329q0 8.733 6.219 13.812 6.234 5.078 17.062 5.078 10.89 0 17.094-5.078 6.203-5.079 6.203-13.813 0-6.25-3.547-10.61-3.531-4.343-9.828-5.906 7.125-1.656 11.094-6.5 3.984-4.828 3.984-11.796 0-10.61-6.468-16.282-6.47-5.656-18.532-5.656-12.047 0-18.531 5.656-6.469 5.672-6.469 16.282 0 6.968 4 11.797 4.016 4.843 11.14 6.5zM18.314 54.39q0-5.657 3.53-8.828 3.548-3.172 9.938-3.172 6.36 0 9.938 3.172 3.593 3.171 3.593 8.828 0 5.672-3.593 8.843-3.578 3.172-9.938 3.172-6.39 0-9.937-3.172-3.532-3.172-3.532-8.843z" id="DejaVuSans-38"/></defs><g transform="matrix(.1 0 0 -.1 65.955 213.285)"><use xlink:href="#DejaVuSans-38"/><use x="63.623" xlink:href="#DejaVuSans-30"/></g></g></g><g id="ytick_6"><use x="85.68" xlink:href="#m21f1fada8a" y="155.282" stroke="#000" stroke-width=".8" id="line2d_12"/><g id="text_12"><defs><path d="M12.406 8.297h16.11v55.625l-17.532-3.516v8.985l17.438 3.515h9.86V8.296H54.39V0H12.406z" id="DejaVuSans-31"/></defs><g transform="matrix(.1 0 0 -.1 59.593 159.08)"><use xlink:href="#DejaVuSans-31"/><use x="63.623" xlink:href="#DejaVuSans-30"/><use x="127.246" xlink:href="#DejaVuSans-30"/></g></g></g><g id="ytick_7"><use x="85.68" xlink:href="#m21f1fada8a" y="101.077" stroke="#000" stroke-width=".8" id="line2d_13"/><g transform="matrix(.1 0 0 -.1 59.593 104.876)" id="text_13"><use xlink:href="#DejaVuSans-31"/><use x="63.623" xlink:href="#DejaVuSans-32"/><use x="127.246" xlink:href="#DejaVuSans-30"/></g></g></g><path clip-path="url(#pe439f52acc)" d="M107.814 423.014h44.268v-24.778h-44.268v24.778" fill="none" stroke="#000" stroke-linecap="square" id="line2d_14"/><path clip-path="url(#pe439f52acc)" d="M129.948 423.014v2.705" fill="none" stroke="#000" stroke-linecap="square" id="line2d_15"/><path clip-path="url(#pe439f52acc)" d="M129.948 398.236v-37.078" fill="none" stroke="#000" stroke-linecap="square" id="line2d_16"/><path clip-path="url(#pe439f52acc)" d="M118.881 425.719h22.134" fill="none" stroke="#000" stroke-linecap="square" id="line2d_17"/><path clip-path="url(#pe439f52acc)" d="M118.881 361.158h22.134" fill="none" stroke="#000" stroke-linecap="square" id="line2d_18"/><g id="line2d_19"><defs><path d="M0 3a3 3 0 1 0 0-6 3 3 0 0 0 0 6z" id="me2934baa2b" stroke="#000"/></defs><g clip-path="url(#pe439f52acc)" fill="none" stroke="#000"><use x="129.948" xlink:href="#me2934baa2b" y="355.746"/><use x="129.948" xlink:href="#me2934baa2b" y="361.064"/></g></g><path clip-path="url(#pe439f52acc)" d="M196.35 423.328h44.268v-21.971H196.35v21.971" fill="none" stroke="#000" stroke-linecap="square" id="line2d_20"/><path clip-path="url(#pe439f52acc)" d="M218.484 423.328v2.667" fill="none" stroke="#000" stroke-linecap="square" id="line2d_21"/><path clip-path="url(#pe439f52acc)" d="M218.484 401.357v-28.994" fill="none" stroke="#000" stroke-linecap="square" id="line2d_22"/><path clip-path="url(#pe439f52acc)" d="M207.417 425.995h22.134" fill="none" stroke="#000" stroke-linecap="square" id="line2d_23"/><path clip-path="url(#pe439f52acc)" d="M207.417 372.363h22.134" fill="none" stroke="#000" stroke-linecap="square" id="line2d_24"/><g clip-path="url(#pe439f52acc)" fill="none" stroke="#000" id="line2d_25"><use x="218.484" xlink:href="#me2934baa2b" y="366.216"/><use x="218.484" xlink:href="#me2934baa2b" y="357.719"/><use x="218.484" xlink:href="#me2934baa2b" y="364.096"/><use x="218.484" xlink:href="#me2934baa2b" y="348.751"/><use x="218.484" xlink:href="#me2934baa2b" y="354.131"/><use x="218.484" xlink:href="#me2934baa2b" y="366.514"/><use x="218.484" xlink:href="#me2934baa2b" y="349.366"/><use x="218.484" xlink:href="#me2934baa2b" y="352.036"/><use x="218.484" xlink:href="#me2934baa2b" y="364.861"/><use x="218.484" xlink:href="#me2934baa2b" y="334.484"/><use x="218.484" xlink:href="#me2934baa2b" y="366.384"/><use x="218.484" xlink:href="#me2934baa2b" y="363.064"/><use x="218.484" xlink:href="#me2934baa2b" y="356.803"/><use x="218.484" xlink:href="#me2934baa2b" y="367.609"/></g><path clip-path="url(#pe439f52acc)" d="M284.886 412.72h44.268v-47.834h-44.268v47.833" fill="none" stroke="#000" stroke-linecap="square" id="line2d_26"/><path clip-path="url(#pe439f52acc)" d="M307.02 412.72v12.516" fill="none" stroke="#000" stroke-linecap="square" id="line2d_27"/><path clip-path="url(#pe439f52acc)" d="M307.02 364.886V297.45" fill="none" stroke="#000" stroke-linecap="square" id="line2d_28"/><path clip-path="url(#pe439f52acc)" d="M295.953 425.236h22.134" fill="none" stroke="#000" stroke-linecap="square" id="line2d_29"/><path clip-path="url(#pe439f52acc)" d="M295.953 297.45h22.134" fill="none" stroke="#000" stroke-linecap="square" id="line2d_30"/><path clip-path="url(#pe439f52acc)" d="M373.422 406.655h44.268v-89.573h-44.268v89.573" fill="none" stroke="#000" stroke-linecap="square" id="line2d_32"/><path clip-path="url(#pe439f52acc)" d="M395.556 406.655v17.481" fill="none" stroke="#000" stroke-linecap="square" id="line2d_33"/><path clip-path="url(#pe439f52acc)" d="M395.556 317.082v-49.597" fill="none" stroke="#000" stroke-linecap="square" id="line2d_34"/><path clip-path="url(#pe439f52acc)" d="M384.489 424.136h22.134" fill="none" stroke="#000" stroke-linecap="square" id="line2d_35"/><path clip-path="url(#pe439f52acc)" d="M384.489 267.485h22.134" fill="none" stroke="#000" stroke-linecap="square" id="line2d_36"/><g clip-path="url(#pe439f52acc)" fill="none" stroke="#000" id="line2d_37"><use x="395.556" xlink:href="#me2934baa2b" y="112.731"/><use x="395.556" xlink:href="#me2934baa2b" y="112.189"/><use x="395.556" xlink:href="#me2934baa2b" y="171.543"/><use x="395.556" xlink:href="#me2934baa2b" y="83.461"/><use x="395.556" xlink:href="#me2934baa2b" y="153.656"/><use x="395.556" xlink:href="#me2934baa2b" y="120.049"/><use x="395.556" xlink:href="#me2934baa2b" y="156.095"/><use x="395.556" xlink:href="#me2934baa2b" y="77.227"/><use x="395.556" xlink:href="#me2934baa2b" y="92.947"/><use x="395.556" xlink:href="#me2934baa2b" y="102.432"/></g><path clip-path="url(#pe439f52acc)" d="M461.958 412.211h44.268v-3.794h-44.268v3.794" fill="none" stroke="#000" stroke-linecap="square" id="line2d_38"/><path clip-path="url(#pe439f52acc)" d="M484.092 412.211v4.336" fill="none" stroke="#000" stroke-linecap="square" id="line2d_39"/><path clip-path="url(#pe439f52acc)" d="M484.092 408.417v-5.692" fill="none" stroke="#000" stroke-linecap="square" id="line2d_40"/><path clip-path="url(#pe439f52acc)" d="M473.025 416.547h22.134" fill="none" stroke="#000" stroke-linecap="square" id="line2d_41"/><path clip-path="url(#pe439f52acc)" d="M473.025 402.725h22.134" fill="none" stroke="#000" stroke-linecap="square" id="line2d_42"/><g clip-path="url(#pe439f52acc)" fill="none" stroke="#000" id="line2d_43"><use x="484.092" xlink:href="#me2934baa2b" y="424.136"/><use x="484.092" xlink:href="#me2934baa2b" y="423.865"/><use x="484.092" xlink:href="#me2934baa2b" y="423.594"/><use x="484.092" xlink:href="#me2934baa2b" y="423.865"/><use x="484.092" xlink:href="#me2934baa2b" y="422.239"/><use x="484.092" xlink:href="#me2934baa2b" y="421.968"/><use x="484.092" xlink:href="#me2934baa2b" y="420.071"/><use x="484.092" xlink:href="#me2934baa2b" y="418.716"/><use x="484.092" xlink:href="#me2934baa2b" y="419.529"/><use x="484.092" xlink:href="#me2934baa2b" y="418.445"/><use x="484.092" xlink:href="#me2934baa2b" y="418.987"/><use x="484.092" xlink:href="#me2934baa2b" y="424.407"/><use x="484.092" xlink:href="#me2934baa2b" y="424.407"/><use x="484.092" xlink:href="#me2934baa2b" y="424.949"/><use x="484.092" xlink:href="#me2934baa2b" y="423.865"/><use x="484.092" xlink:href="#me2934baa2b" y="422.239"/><use x="484.092" xlink:href="#me2934baa2b" y="422.239"/><use x="484.092" xlink:href="#me2934baa2b" y="420.071"/><use x="484.092" xlink:href="#me2934baa2b" y="418.445"/><use x="484.092" xlink:href="#me2934baa2b" y="419.8"/><use x="484.092" xlink:href="#me2934baa2b" y="422.239"/><use x="484.092" xlink:href="#me2934baa2b" y="424.136"/><use x="484.092" xlink:href="#me2934baa2b" y="423.865"/><use x="484.092" xlink:href="#me2934baa2b" y="424.949"/><use x="484.092" xlink:href="#me2934baa2b" y="423.052"/><use x="484.092" xlink:href="#me2934baa2b" y="421.697"/><use x="484.092" xlink:href="#me2934baa2b" y="422.239"/><use x="484.092" xlink:href="#me2934baa2b" y="420.613"/><use x="484.092" xlink:href="#me2934baa2b" y="419.529"/><use x="484.092" xlink:href="#me2934baa2b" y="418.716"/><use x="484.092" xlink:href="#me2934baa2b" y="418.173"/><use x="484.092" xlink:href="#me2934baa2b" y="418.716"/><use x="484.092" xlink:href="#me2934baa2b" y="423.865"/><use x="484.092" xlink:href="#me2934baa2b" y="424.136"/><use x="484.092" xlink:href="#me2934baa2b" y="424.949"/><use x="484.092" xlink:href="#me2934baa2b" y="422.781"/><use x="484.092" xlink:href="#me2934baa2b" y="422.781"/><use x="484.092" xlink:href="#me2934baa2b" y="422.51"/><use x="484.092" xlink:href="#me2934baa2b" y="419.8"/><use x="484.092" xlink:href="#me2934baa2b" y="420.613"/><use x="484.092" xlink:href="#me2934baa2b" y="419.8"/><use x="484.092" xlink:href="#me2934baa2b" y="418.173"/><use x="484.092" xlink:href="#me2934baa2b" y="424.136"/><use x="484.092" xlink:href="#me2934baa2b" y="423.865"/><use x="484.092" xlink:href="#me2934baa2b" y="424.949"/><use x="484.092" xlink:href="#me2934baa2b" y="423.594"/><use x="484.092" xlink:href="#me2934baa2b" y="422.51"/><use x="484.092" xlink:href="#me2934baa2b" y="422.239"/><use x="484.092" xlink:href="#me2934baa2b" y="420.884"/><use x="484.092" xlink:href="#me2934baa2b" y="418.173"/><use x="484.092" xlink:href="#me2934baa2b" y="419.8"/><use x="484.092" xlink:href="#me2934baa2b" y="418.445"/><use x="484.092" xlink:href="#me2934baa2b" y="420.884"/><use x="484.092" xlink:href="#me2934baa2b" y="402.454"/><use x="484.092" xlink:href="#me2934baa2b" y="396.221"/><use x="484.092" xlink:href="#me2934baa2b" y="398.66"/><use x="484.092" xlink:href="#me2934baa2b" y="401.099"/><use x="484.092" xlink:href="#me2934baa2b" y="401.912"/><use x="484.092" xlink:href="#me2934baa2b" y="401.099"/><use x="484.092" xlink:href="#me2934baa2b" y="398.66"/><use x="484.092" xlink:href="#me2934baa2b" y="397.576"/><use x="484.092" xlink:href="#me2934baa2b" y="400.015"/><use x="484.092" xlink:href="#me2934baa2b" y="401.912"/><use x="484.092" xlink:href="#me2934baa2b" y="401.912"/><use x="484.092" xlink:href="#me2934baa2b" y="400.557"/><use x="484.092" xlink:href="#me2934baa2b" y="397.576"/><use x="484.092" xlink:href="#me2934baa2b" y="397.305"/><use x="484.092" xlink:href="#me2934baa2b" y="397.847"/><use x="484.092" xlink:href="#me2934baa2b" y="394.324"/><use x="484.092" xlink:href="#me2934baa2b" y="398.66"/><use x="484.092" xlink:href="#me2934baa2b" y="400.286"/><use x="484.092" xlink:href="#me2934baa2b" y="390.258"/><use x="484.092" xlink:href="#me2934baa2b" y="398.931"/><use x="484.092" xlink:href="#me2934baa2b" y="397.305"/><use x="484.092" xlink:href="#me2934baa2b" y="400.015"/><use x="484.092" xlink:href="#me2934baa2b" y="391.613"/><use x="484.092" xlink:href="#me2934baa2b" y="387.006"/><use x="484.092" xlink:href="#me2934baa2b" y="401.641"/><use x="484.092" xlink:href="#me2934baa2b" y="397.034"/><use x="484.092" xlink:href="#me2934baa2b" y="399.744"/><use x="484.092" xlink:href="#me2934baa2b" y="400.828"/><use x="484.092" xlink:href="#me2934baa2b" y="400.015"/><use x="484.092" xlink:href="#me2934baa2b" y="399.202"/><use x="484.092" xlink:href="#me2934baa2b" y="400.557"/><use x="484.092" xlink:href="#me2934baa2b" y="394.324"/><use x="484.092" xlink:href="#me2934baa2b" y="399.202"/><use x="484.092" xlink:href="#me2934baa2b" y="400.828"/><use x="484.092" xlink:href="#me2934baa2b" y="400.015"/><use x="484.092" xlink:href="#me2934baa2b" y="396.763"/><use x="484.092" xlink:href="#me2934baa2b" y="388.361"/><use x="484.092" xlink:href="#me2934baa2b" y="385.38"/><use x="484.092" xlink:href="#me2934baa2b" y="401.641"/><use x="484.092" xlink:href="#me2934baa2b" y="386.735"/><use x="484.092" xlink:href="#me2934baa2b" y="395.137"/><use x="484.092" xlink:href="#me2934baa2b" y="397.847"/><use x="484.092" xlink:href="#me2934baa2b" y="394.866"/><use x="484.092" xlink:href="#me2934baa2b" y="401.641"/><use x="484.092" xlink:href="#me2934baa2b" y="397.576"/><use x="484.092" xlink:href="#me2934baa2b" y="393.239"/><use x="484.092" xlink:href="#me2934baa2b" y="401.641"/><use x="484.092" xlink:href="#me2934baa2b" y="399.202"/><use x="484.092" xlink:href="#me2934baa2b" y="382.941"/><use x="484.092" xlink:href="#me2934baa2b" y="400.286"/><use x="484.092" xlink:href="#me2934baa2b" y="397.305"/><use x="484.092" xlink:href="#me2934baa2b" y="402.454"/><use x="484.092" xlink:href="#me2934baa2b" y="401.912"/><use x="484.092" xlink:href="#me2934baa2b" y="400.828"/><use x="484.092" xlink:href="#me2934baa2b" y="402.454"/><use x="484.092" xlink:href="#me2934baa2b" y="400.557"/><use x="484.092" xlink:href="#me2934baa2b" y="401.912"/><use x="484.092" xlink:href="#me2934baa2b" y="397.305"/><use x="484.092" xlink:href="#me2934baa2b" y="397.305"/><use x="484.092" xlink:href="#me2934baa2b" y="398.118"/><use x="484.092" xlink:href="#me2934baa2b" y="374.81"/><use x="484.092" xlink:href="#me2934baa2b" y="392.697"/><use x="484.092" xlink:href="#me2934baa2b" y="399.473"/><use x="484.092" xlink:href="#me2934baa2b" y="381.585"/><use x="484.092" xlink:href="#me2934baa2b" y="394.866"/><use x="484.092" xlink:href="#me2934baa2b" y="398.389"/><use x="484.092" xlink:href="#me2934baa2b" y="397.305"/><use x="484.092" xlink:href="#me2934baa2b" y="400.828"/><use x="484.092" xlink:href="#me2934baa2b" y="391.884"/><use x="484.092" xlink:href="#me2934baa2b" y="399.202"/><use x="484.092" xlink:href="#me2934baa2b" y="401.099"/><use x="484.092" xlink:href="#me2934baa2b" y="401.099"/><use x="484.092" xlink:href="#me2934baa2b" y="401.099"/><use x="484.092" xlink:href="#me2934baa2b" y="399.473"/><use x="484.092" xlink:href="#me2934baa2b" y="398.118"/><use x="484.092" xlink:href="#me2934baa2b" y="398.389"/><use x="484.092" xlink:href="#me2934baa2b" y="402.454"/><use x="484.092" xlink:href="#me2934baa2b" y="398.389"/><use x="484.092" xlink:href="#me2934baa2b" y="396.221"/><use x="484.092" xlink:href="#me2934baa2b" y="393.781"/><use x="484.092" xlink:href="#me2934baa2b" y="364.782"/><use x="484.092" xlink:href="#me2934baa2b" y="392.155"/><use x="484.092" xlink:href="#me2934baa2b" y="397.576"/><use x="484.092" xlink:href="#me2934baa2b" y="389.716"/><use x="484.092" xlink:href="#me2934baa2b" y="396.492"/><use x="484.092" xlink:href="#me2934baa2b" y="387.548"/><use x="484.092" xlink:href="#me2934baa2b" y="401.641"/><use x="484.092" xlink:href="#me2934baa2b" y="390.8"/><use x="484.092" xlink:href="#me2934baa2b" y="396.492"/><use x="484.092" xlink:href="#me2934baa2b" y="398.931"/><use x="484.092" xlink:href="#me2934baa2b" y="401.099"/><use x="484.092" xlink:href="#me2934baa2b" y="400.557"/><use x="484.092" xlink:href="#me2934baa2b" y="397.305"/><use x="484.092" xlink:href="#me2934baa2b" y="395.137"/><use x="484.092" xlink:href="#me2934baa2b" y="400.828"/><use x="484.092" xlink:href="#me2934baa2b" y="401.099"/><use x="484.092" xlink:href="#me2934baa2b" y="401.37"/><use x="484.092" xlink:href="#me2934baa2b" y="398.66"/><use x="484.092" xlink:href="#me2934baa2b" y="398.118"/><use x="484.092" xlink:href="#me2934baa2b" y="400.015"/><use x="484.092" xlink:href="#me2934baa2b" y="370.203"/><use x="484.092" xlink:href="#me2934baa2b" y="395.408"/><use x="484.092" xlink:href="#me2934baa2b" y="388.09"/><use x="484.092" xlink:href="#me2934baa2b" y="401.912"/><use x="484.092" xlink:href="#me2934baa2b" y="379.959"/><use x="484.092" xlink:href="#me2934baa2b" y="394.052"/><use x="484.092" xlink:href="#me2934baa2b" y="398.66"/><use x="484.092" xlink:href="#me2934baa2b" y="391.342"/><use x="484.092" xlink:href="#me2934baa2b" y="402.183"/><use x="484.092" xlink:href="#me2934baa2b" y="399.473"/><use x="484.092" xlink:href="#me2934baa2b" y="387.819"/></g><path clip-path="url(#pe439f52acc)" d="M550.494 418.173h44.268v-84.016h-44.268v84.016" fill="none" stroke="#000" stroke-linecap="square" id="line2d_44"/><path clip-path="url(#pe439f52acc)" d="M572.628 418.173v5.42" fill="none" stroke="#000" stroke-linecap="square" id="line2d_45"/><path clip-path="url(#pe439f52acc)" d="M572.628 334.157V252.85" fill="none" stroke="#000" stroke-linecap="square" id="line2d_46"/><path clip-path="url(#pe439f52acc)" d="M561.561 423.594h22.134" fill="none" stroke="#000" stroke-linecap="square" id="line2d_47"/><path clip-path="url(#pe439f52acc)" d="M561.561 252.85h22.134" fill="none" stroke="#000" stroke-linecap="square" id="line2d_48"/><path clip-path="url(#pe439f52acc)" d="M107.814 416.126h44.268" fill="none" stroke="#ff7f0e" stroke-linecap="square" id="line2d_50"/><g id="line2d_51"><defs><path d="M0-3l-3 6h6z" id="m2875835d8c" stroke="#2ca02c"/></defs><g clip-path="url(#pe439f52acc)"><use x="129.948" xlink:href="#m2875835d8c" y="408.865" fill="#2ca02c" stroke="#2ca02c"/></g></g><path clip-path="url(#pe439f52acc)" d="M196.35 418.412h44.268" fill="none" stroke="#ff7f0e" stroke-linecap="square" id="line2d_52"/><g clip-path="url(#pe439f52acc)" id="line2d_53"><use x="218.484" xlink:href="#m2875835d8c" y="410.516" fill="#2ca02c" stroke="#2ca02c"/></g><path clip-path="url(#pe439f52acc)" d="M284.886 381.852h44.268" fill="none" stroke="#ff7f0e" stroke-linecap="square" id="line2d_54"/><g clip-path="url(#pe439f52acc)" id="line2d_55"><use x="307.02" xlink:href="#m2875835d8c" y="383.388" fill="#2ca02c" stroke="#2ca02c"/></g><path clip-path="url(#pe439f52acc)" d="M373.422 331.175h44.268" fill="none" stroke="#ff7f0e" stroke-linecap="square" id="line2d_56"/><g clip-path="url(#pe439f52acc)" id="line2d_57"><use x="395.556" xlink:href="#m2875835d8c" y="341.081" fill="#2ca02c" stroke="#2ca02c"/></g><path clip-path="url(#pe439f52acc)" d="M461.958 410.856h44.268" fill="none" stroke="#ff7f0e" stroke-linecap="square" id="line2d_58"/><g clip-path="url(#pe439f52acc)" id="line2d_59"><use x="484.092" xlink:href="#m2875835d8c" y="409.662" fill="#2ca02c" stroke="#2ca02c"/></g><path clip-path="url(#pe439f52acc)" d="M550.494 361.259h44.268" fill="none" stroke="#ff7f0e" stroke-linecap="square" id="line2d_60"/><g clip-path="url(#pe439f52acc)" id="line2d_61"><use x="572.628" xlink:href="#m2875835d8c" y="367.535" fill="#2ca02c" stroke="#2ca02c"/></g><path d="M85.68 443.434V59.789" fill="none" stroke="#000" stroke-linecap="square" stroke-width=".8" id="patch_3"/><path d="M616.896 443.434V59.789" fill="none" stroke="#000" stroke-linecap="square" stroke-width=".8" id="patch_4"/><path d="M85.68 443.434h531.216" fill="none" stroke="#000" stroke-linecap="square" stroke-width=".8" id="patch_5"/><path d="M85.68 59.789h531.216" fill="none" stroke="#000" stroke-linecap="square" stroke-width=".8" id="patch_6"/></g></g><defs><clipPath id="pe439f52acc"><path d="M85.68 59.789h531.216v383.645H85.68z"/></clipPath></defs></svg>